<svg xmlns="http://www.w3.org/2000/svg" xmlns:xlink="http://www.w3.org/1999/xlink" xmlns:inkscape="http://www.inkscape.org/namespaces/inkscape" version="1.1" width="1087" height="500" viewBox="0 0 1087 500">
<defs fill="#ffffff">
<clipPath id="clip_0" fill="#ffffff">
<path transform="matrix(1,0,0,-1,0,500)" d="M0 500H1087V0H0Z" fill="#ffffff"/>
</clipPath>
</defs>
<g clip-path="url(#clip_0)">
<path transform="matrix(1,0,0,-1,261.1299,431.4245)" d="M0 0C0 .93-.159 1.818-.476 2.664-.793 3.51-1.216 4.25-1.745 4.885-2.274 5.519-2.918 6.026-3.679 6.407-4.44 6.788-5.265 6.978-6.154 6.978H-20.997V-6.788H-6.597C-5.667-6.788-4.8-6.609-3.996-6.249-3.194-5.89-2.496-5.403-1.903-4.79-1.311-4.177-.846-3.458-.508-2.633-.17-1.808 0-.931 0 0M-20.997 25.946V12.687H-7.93C-7.041 12.687-6.228 12.856-5.487 13.195-4.748 13.533-4.092 13.988-3.521 14.559-2.95 15.129-2.506 15.817-2.189 16.62-1.871 17.423-1.713 18.312-1.713 19.285-1.713 21.229-2.263 22.826-3.362 24.074-4.463 25.321-5.858 25.946-7.549 25.946ZM7.295-1.332C7.295-3.151 6.925-4.78 6.185-6.217 5.445-7.655 4.45-8.871 3.204-9.865 1.956-10.859 .486-11.62-1.205-12.149-2.897-12.678-4.694-12.941-6.597-12.941H-28.102V32.099H-4.885C-3.321 32.099-1.903 31.76-.634 31.084 .634 30.407 1.713 29.53 2.601 28.451 3.489 27.373 4.176 26.146 4.663 24.772 5.148 23.397 5.392 22.012 5.392 20.617 5.392 18.418 4.831 16.356 3.711 14.432 2.59 12.507 .993 11.08-1.078 10.15 1.501 9.389 3.542 8.003 5.043 5.994 6.544 3.985 7.295 1.543 7.295-1.332" fill="#ffffff"/>
<path transform="matrix(1,0,0,-1,293.8632,407.2551)" d="M0 0-7.485-19.602H7.232ZM-21.061-37.111-2.918 7.93H2.918L20.997-37.111H13.448L8.627-24.867H-8.754L-13.448-37.111Z" fill="#ffffff"/>
<path transform="matrix(1,0,0,-1,322.7272,444.36579)" d="M0 0V44.977H7.105V21.505L28.546 45.04H36.159L18.397 25.121 37.174 0H29.498L14.146 21.061 7.105 13.703V0Z" fill="#ffffff"/>
<path transform="matrix(1,0,0,-1,397.7734,438.0857)" d="M0 0V-6.28H-30.894V38.76H-.571V32.48H-23.789V19.665H-3.68V13.766H-23.789V0Z" fill="#ffffff"/>
<path transform="matrix(1,0,0,-1,414.901,422.4166)" d="M0 0H12.434C13.448 0 14.368 .222 15.193 .666 16.018 1.11 16.725 1.723 17.318 2.506 17.91 3.288 18.375 4.187 18.714 5.202 19.052 6.217 19.221 7.295 19.221 8.437 19.221 9.579 19.02 10.658 18.619 11.672 18.216 12.687 17.688 13.575 17.033 14.337 16.376 15.098 15.615 15.701 14.749 16.145 13.882 16.588 12.983 16.811 12.053 16.811H0ZM-7.105-21.949V23.091H12.497C14.527 23.091 16.398 22.668 18.111 21.822 19.824 20.976 21.293 19.865 22.52 18.492 23.746 17.117 24.709 15.552 25.406 13.798 26.104 12.042 26.453 10.255 26.453 8.437 26.453 6.915 26.241 5.455 25.818 4.06 25.395 2.664 24.804 1.374 24.042 .19 23.281-.994 22.35-2.02 21.251-2.886 20.151-3.754 18.946-4.399 17.635-4.821L28.356-21.949H20.3L10.403-6.28H0V-21.949Z" fill="#ffffff"/>
<path transform="matrix(1,0,0,-1,479.3528,409.9194)" d="M0 0C-.423 .465-1.037 .961-1.84 1.49-2.643 2.019-3.584 2.516-4.663 2.981-5.741 3.446-6.936 3.827-8.247 4.123-9.558 4.418-10.954 4.568-12.434 4.568-15.225 4.568-17.34 4.017-18.777 2.918-20.216 1.818-20.934 .275-20.934-1.713-20.934-2.813-20.702-3.711-20.237-4.409-19.772-5.107-19.074-5.709-18.143-6.217-17.213-6.724-16.05-7.179-14.654-7.581-13.258-7.983-11.631-8.416-9.769-8.881-7.571-9.474-5.551-10.087-3.711-10.721-1.872-11.355-.307-12.149 .983-13.1 2.273-14.052 3.277-15.225 3.996-16.62 4.715-18.016 5.075-19.751 5.075-21.822 5.075-24.192 4.631-26.2 3.743-27.849 2.854-29.498 1.659-30.841 .159-31.877-1.343-32.914-3.088-33.675-5.075-34.161-7.063-34.646-9.178-34.891-11.419-34.891-14.844-34.891-18.165-34.373-21.379-33.336-24.593-32.3-27.49-30.789-30.069-28.8L-26.77-22.71C-26.221-23.261-25.438-23.874-24.423-24.55-23.408-25.227-22.214-25.851-20.839-26.422-19.465-26.992-17.953-27.479-16.303-27.881-14.654-28.283-12.941-28.483-11.165-28.483-8.459-28.483-6.355-27.987-4.853-26.992-3.352-25.999-2.601-24.55-2.601-22.647-2.601-21.505-2.876-20.554-3.426-19.793-3.976-19.031-4.78-18.365-5.836-17.794-6.894-17.223-8.183-16.715-9.706-16.272-11.228-15.828-12.963-15.352-14.908-14.844-17.15-14.253-19.105-13.629-20.776-12.973-22.447-12.318-23.831-11.525-24.931-10.594-26.031-9.664-26.866-8.575-27.437-7.327-28.007-6.08-28.293-4.568-28.293-2.791-28.293-.593-27.881 1.364-27.056 3.077-26.231 4.79-25.089 6.227-23.63 7.39-22.171 8.553-20.449 9.43-18.46 10.023-16.473 10.614-14.337 10.911-12.053 10.911-8.924 10.911-6.08 10.424-3.521 9.452-.962 8.479 1.289 7.273 3.235 5.836Z" fill="#ffffff"/>
<path transform="matrix(1,0,0,-1,519.1279,409.0317)" d="M0 0C0-.423 .063-.835 .19-1.237 .317-1.639 .539-2.083 .856-2.569 1.173-3.055 1.617-3.627 2.188-4.282 2.759-4.938 3.467-5.709 4.313-6.597 6.258-5.328 7.803-4.155 8.944-3.077 10.086-1.998 10.657-.783 10.657 .571 10.657 1.924 10.181 3.014 9.23 3.838 8.278 4.663 7.062 5.075 5.582 5.075 3.974 5.075 2.642 4.577 1.586 3.584 .528 2.59 0 1.396 0 0M6.089-30.45C7.696-30.45 9.23-30.154 10.689-29.561 12.148-28.97 13.49-28.124 14.717-27.024L2.981-14.654C1.247-15.881-.138-17.17-1.174-18.524-2.211-19.878-2.728-21.4-2.728-23.091-2.728-24.191-2.496-25.195-2.03-26.104-1.566-27.014-.931-27.785-.127-28.419 .676-29.054 1.607-29.551 2.664-29.91 3.721-30.27 4.863-30.45 6.089-30.45M22.583-35.334 18.46-31.02C16.598-32.628 14.559-33.854 12.338-34.7 10.118-35.545 7.803-35.968 5.392-35.968 3.193-35.968 1.183-35.63-.635-34.953-2.453-34.277-4.018-33.357-5.329-32.194-6.64-31.031-7.655-29.657-8.374-28.071-9.094-26.485-9.452-24.804-9.452-23.028-9.452-21.59-9.221-20.258-8.754-19.031-8.29-17.805-7.676-16.674-6.915-15.637-6.154-14.601-5.276-13.638-4.282-12.751-3.289-11.862-2.242-11.017-1.142-10.213-2.115-9.157-2.929-8.183-3.584-7.295-4.24-6.407-4.78-5.572-5.202-4.789-5.625-4.007-5.922-3.246-6.09-2.505-6.26-1.766-6.344-.994-6.344-.19-6.344 1.332-6.038 2.738-5.424 4.028-4.812 5.318-3.976 6.428-2.919 7.359-1.862 8.289-.603 9.008 .856 9.516 2.315 10.023 3.89 10.277 5.582 10.277 7.105 10.277 8.564 10.065 9.959 9.643 11.355 9.22 12.581 8.606 13.638 7.803 14.695 6.999 15.531 5.995 16.144 4.79 16.757 3.584 17.064 2.221 17.064 .698 17.064-1.798 16.249-3.975 14.622-5.836 12.993-7.698 10.975-9.431 8.564-11.038L18.65-21.632C19.369-20.152 19.929-18.566 20.331-16.874 20.733-15.183 20.934-13.364 20.934-11.418H26.707C26.664-14.252 26.304-16.885 25.628-19.316 24.951-21.749 24-23.958 22.773-25.946L31.781-35.334Z" fill="#ffffff"/>
<path transform="matrix(1,0,0,-1,603.4351,409.9194)" d="M0 0C-.423 .465-1.037 .961-1.84 1.49-2.643 2.019-3.584 2.516-4.663 2.981-5.741 3.446-6.936 3.827-8.247 4.123-9.558 4.418-10.954 4.568-12.434 4.568-15.225 4.568-17.34 4.017-18.777 2.918-20.216 1.818-20.934 .275-20.934-1.713-20.934-2.813-20.702-3.711-20.237-4.409-19.772-5.107-19.074-5.709-18.143-6.217-17.213-6.724-16.05-7.179-14.654-7.581-13.258-7.983-11.631-8.416-9.769-8.881-7.571-9.474-5.551-10.087-3.711-10.721-1.872-11.355-.307-12.149 .983-13.1 2.273-14.052 3.277-15.225 3.996-16.62 4.715-18.016 5.075-19.751 5.075-21.822 5.075-24.192 4.631-26.2 3.743-27.849 2.854-29.498 1.659-30.841 .159-31.877-1.343-32.914-3.088-33.675-5.075-34.161-7.063-34.646-9.178-34.891-11.419-34.891-14.844-34.891-18.165-34.373-21.379-33.336-24.593-32.3-27.49-30.789-30.069-28.8L-26.77-22.71C-26.221-23.261-25.438-23.874-24.423-24.55-23.408-25.227-22.214-25.851-20.839-26.422-19.465-26.992-17.953-27.479-16.303-27.881-14.654-28.283-12.941-28.483-11.165-28.483-8.459-28.483-6.355-27.987-4.853-26.992-3.352-25.999-2.601-24.55-2.601-22.647-2.601-21.505-2.877-20.554-3.426-19.793-3.976-19.031-4.78-18.365-5.836-17.794-6.894-17.223-8.183-16.715-9.706-16.272-11.228-15.828-12.963-15.352-14.908-14.844-17.15-14.253-19.105-13.629-20.776-12.973-22.447-12.318-23.831-11.525-24.931-10.594-26.031-9.664-26.866-8.575-27.437-7.327-28.007-6.08-28.293-4.568-28.293-2.791-28.293-.593-27.881 1.364-27.056 3.077-26.231 4.79-25.089 6.227-23.63 7.39-22.171 8.553-20.449 9.43-18.46 10.023-16.473 10.614-14.337 10.911-12.053 10.911-8.924 10.911-6.08 10.424-3.521 9.452-.962 8.479 1.289 7.273 3.235 5.836Z" fill="#ffffff"/>
<path transform="matrix(1,0,0,-1,633.1234,399.516)" d="M0 0H6.661L12.18-15.288 17.762 0H24.487L16.747-20.046 23.535-36.603 37.555 .191H45.294L26.77-44.85H20.617L12.244-24.677 3.806-44.85H-2.284L-20.807 .191H-13.131L1.015-36.603 7.676-20.046Z" fill="#ffffff"/>
<path transform="matrix(1,0,0,-1,717.0505,438.0857)" d="M0 0V-6.28H-30.894V38.76H-.571V32.48H-23.789V19.665H-3.68V13.766H-23.789V0Z" fill="#ffffff"/>
<path transform="matrix(1,0,0,-1,757.9669,438.0857)" d="M0 0V-6.28H-30.894V38.76H-.571V32.48H-23.789V19.665H-3.68V13.766H-23.789V0Z" fill="#ffffff"/>
<path transform="matrix(1,0,0,-1,801.0406,405.60603)" d="M0 0H-14.971V-38.76H-22.076V0H-37.111V6.281H0Z" fill="#ffffff"/>
<path transform="matrix(1,0,0,-1,835.8676,409.9194)" d="M0 0C-.423 .465-1.037 .961-1.84 1.49-2.643 2.019-3.584 2.516-4.663 2.981-5.741 3.446-6.936 3.827-8.247 4.123-9.558 4.418-10.954 4.568-12.434 4.568-15.225 4.568-17.34 4.017-18.777 2.918-20.216 1.818-20.934 .275-20.934-1.713-20.934-2.813-20.702-3.711-20.237-4.409-19.772-5.107-19.074-5.709-18.143-6.217-17.213-6.724-16.05-7.179-14.654-7.581-13.258-7.983-11.631-8.416-9.769-8.881-7.571-9.474-5.551-10.087-3.711-10.721-1.872-11.355-.307-12.149 .983-13.1 2.273-14.052 3.277-15.225 3.996-16.62 4.715-18.016 5.075-19.751 5.075-21.822 5.075-24.192 4.631-26.2 3.743-27.849 2.854-29.498 1.659-30.841 .159-31.877-1.343-32.914-3.088-33.675-5.075-34.161-7.063-34.646-9.178-34.891-11.419-34.891-14.844-34.891-18.165-34.373-21.379-33.336-24.593-32.3-27.49-30.789-30.069-28.8L-26.77-22.71C-26.221-23.261-25.438-23.874-24.423-24.55-23.408-25.227-22.214-25.851-20.839-26.422-19.465-26.992-17.953-27.479-16.303-27.881-14.654-28.283-12.941-28.483-11.165-28.483-8.459-28.483-6.355-27.987-4.853-26.992-3.352-25.999-2.601-24.55-2.601-22.647-2.601-21.505-2.876-20.554-3.426-19.793-3.976-19.031-4.78-18.365-5.836-17.794-6.894-17.223-8.183-16.715-9.706-16.272-11.228-15.828-12.963-15.352-14.908-14.844-17.15-14.253-19.105-13.629-20.776-12.973-22.447-12.318-23.831-11.525-24.931-10.594-26.031-9.664-26.866-8.575-27.437-7.327-28.007-6.08-28.293-4.568-28.293-2.791-28.293-.593-27.881 1.364-27.056 3.077-26.231 4.79-25.089 6.227-23.63 7.39-22.171 8.553-20.449 9.43-18.46 10.023-16.473 10.614-14.337 10.911-12.053 10.911-8.924 10.911-6.08 10.424-3.521 9.452-.962 8.479 1.289 7.273 3.235 5.836Z" fill="#ffffff"/>
<path transform="matrix(1,0,0,-1,264.4674,91.7493)" d="M0 0C-4.422 0-9.414-.14-14.835-.416-22.241-.794-23.272-.826-23.393-.826-23.705-.82-27.266-.684-34.074-.416-41.047-.14-47.096 0-52.053 0-53.901 0-59.524 0-59.524-3.891-59.524-5.344-58.768-7.783-53.706-7.783-50.02-7.783-46.183-8.229-42.359-9.096-38.751-10.037-36.441-11.944-35.295-14.925-34.008-18.272-33.264-24.488-33.085-33.402L-30.164-168.265C-34.741-163.388-42.92-154.479-54.595-141.651-70.244-124.47-83.082-110.473-92.756-100.047-144.024-45.137-173.478-13.368-180.39-5.526-180.87-5.053-182.73-2.983-183.343-2.3-185.011-.45-186.399 .983-187.477 1.971-188.877 3.238-190.164 3.855-191.41 3.855-195.554 3.855-196.403-2.434-196.403-11.879V-43.964C-196.403-44.79-196.45-52.222-196.54-66.257-196.633-80.011-196.678-100.51-196.678-128.928V-169.689C-196.678-182.333-197.217-191.08-198.281-195.688-199.216-199.74-200.924-202.06-203.598-202.804-206.691-203.835-210.281-204.356-214.269-204.356-217.341-204.356-218.436-206.223-218.436-207.971-218.436-209.528-217.609-212.137-212.067-212.137-207.184-212.137-201.42-212.043-194.876-211.857L-185.627-211.311C-185.539-211.311-184.906-211.324-181.074-211.583-178.286-211.765-174.597-211.905-170.105-211.999-165.521-212.091-160.921-212.137-156.433-212.137-150.714-212.137-149.513-209.871-149.513-207.971-149.513-206.223-150.607-204.356-153.679-204.356-158.444-204.356-162.909-203.821-166.91-202.779-170.145-201.855-172.373-199.514-173.72-195.621-175.209-191.339-176.052-183.621-176.229-172.664L-179.664-46.115C-158.477-69.871-135.51-95.099-111.332-121.173-102.512-130.726-92.263-141.578-80.872-153.424-69.48-165.276-59.882-175.15-52.348-182.772-44.817-190.399-40.498-194.76-39.395-195.864-21.199-214.065-19.215-214.065-17.902-214.065-16.738-214.065-15.741-213.592-15.088-212.722-14.592-212.054-14.276-211.048-14.031-209.346-13.839-207.991-13.698-206.033-13.599-203.357-13.507-200.724-13.46-197.087-13.46-192.554L-12.91-31.707C-12.91-20.421-11.942-15.699-11.13-13.725-10.092-11.204-8.016-9.604-4.91-8.858-1.668-8.315 .715-7.949 2.278-7.752 6.115-7.054 6.92-5.268 6.92-3.891 6.92-1.309 4.592 0 0 0" fill="#ffffff"/>
<path transform="matrix(1,0,0,-1,458.8989,283.27949)" d="M0 0C-7.058-4.02-13.551-6.728-19.299-8.055-25.092-9.393-30.827-10.071-36.346-10.071-60.974-10.071-81.694-.525-97.93 18.304-114.243 37.213-122.514 62.495-122.514 93.449-122.514 121.983-115.192 144.137-100.748 159.296-86.329 174.424-67.254 182.095-44.058 182.095-21.615 182.095-2.183 173.186 13.698 155.615 29.628 137.984 37.703 113.361 37.703 82.432 37.703 67.473 35.836 54.053 32.152 42.544 28.481 31.088 23.923 22.044 18.603 15.661 13.274 9.264 7.014 3.995 0 0M37.002 166.914C16.43 185.806-10.194 195.385-42.129 195.385-60.334 195.385-77.023 191.799-91.729 184.725-106.451 177.642-118.224 168.413-126.724 157.296-135.17 146.255-141.662 134.447-146.019 122.2-150.388 109.932-152.604 97.664-152.604 85.737-152.604 75.34-151.333 64.987-148.828 54.967-146.313 44.903-142.117 34.903-136.354 25.244-130.586 15.563-123.507 6.976-115.315-.282-107.082-7.583-96.671-13.503-84.374-17.877-72.092-22.246-58.435-24.461-43.782-24.461-10.871-24.461 16.297-13.273 36.967 8.795 57.605 30.826 68.069 58.195 68.069 90.144 68.069 122.144 57.616 147.975 37.002 166.914" fill="#ffffff"/>
<path transform="matrix(1,0,0,-1,713.102,283.27949)" d="M0 0C-7.058-4.02-13.551-6.728-19.299-8.055-25.092-9.393-30.828-10.071-36.346-10.071-60.974-10.071-81.694-.525-97.93 18.304-114.243 37.213-122.514 62.495-122.514 93.449-122.514 121.983-115.192 144.137-100.748 159.296-86.329 174.424-67.254 182.095-44.058 182.095-21.615 182.095-2.183 173.186 13.698 155.615 29.628 137.984 37.703 113.361 37.703 82.432 37.703 67.473 35.836 54.053 32.152 42.544 28.481 31.088 23.923 22.044 18.603 15.661 13.274 9.264 7.014 3.995 0 0M37.002 166.914C16.43 185.806-10.194 195.385-42.13 195.385-60.334 195.385-77.023 191.799-91.729 184.725-106.451 177.642-118.224 168.413-126.724 157.296-135.17 146.255-141.662 134.447-146.019 122.2-150.388 109.932-152.604 97.664-152.604 85.737-152.604 75.34-151.333 64.987-148.828 54.967-146.311 44.897-142.113 34.897-136.354 25.244-130.586 15.565-123.507 6.977-115.313-.282-107.082-7.581-96.673-13.503-84.374-17.877-72.092-22.246-58.435-24.461-43.782-24.461-10.871-24.461 16.297-13.273 36.967 8.795 57.605 30.826 68.069 58.195 68.069 90.144 68.069 122.144 57.616 147.975 37.002 166.914" fill="#ffffff"/>
<path transform="matrix(1,0,0,-1,930.0982,157.608)" d="M0 0C0-19.78-5.367-33.507-15.968-40.809-20.561-44.043-27.13-45.683-35.493-45.683-49.395-45.683-58.787-44.294-63.442-41.533-64.114-41.15-64.377-40.703-64.377-39.935V50.125C-64.377 51.066-64.051 51.365-63.572 51.549-60.102 52.592-54.085 53.119-45.683 53.119-31.654 53.119-20.428 48.432-12.32 39.191-4.144 29.871 0 16.685 0 0M93.399-138.497C89.847-138.497 86.337-138.227 82.965-137.696 71.885-135.938 60.957-129.463 50.487-118.456 41.717-109.156 22.859-85.963-5.576-49.506 16.081-29.024 27.061-7.554 27.061 14.321 27.061 23.089 24.925 31.033 20.714 37.93 16.556 44.731 12.023 49.925 7.242 53.37-4.25 61.657-21.592 65.859-44.305 65.859-47.616 65.859-53.8 65.719-62.682 65.445-74.659 65.073-76.547 65.033-76.789 65.033-77.057 65.038-78.865 65.126-82.212 65.305-85.695 65.485-89.86 65.623-94.946 65.721-99.918 65.811-104.246 65.859-107.927 65.859-113.467 65.859-114.295 63.248-114.295 61.691-114.295 59.943-113.2 58.076-110.129 58.076-106.271 58.076-103.28 57.817-101.166 57.292-97.296 56.483-94.695 55.138-93.441 53.292-92.084 51.292-91.223 47.953-90.882 43.393-90.52 37.571-90.336 17.599-90.336-15.973V-64.446C-90.336-96.339-90.794-116.369-91.693-123.944-92.829-132.212-95.04-136.874-98.164-137.441-101.308-138.143-103.944-138.497-105.998-138.497-109.069-138.497-110.164-140.365-110.164-142.113-110.164-143.669-109.336-146.278-103.794-146.278-102.308-146.278-100.355-146.23-97.934-146.138-93.355-145.956-88.838-146.048-84.698-145.864-82.701-145.768-81.019-145.63-79.701-145.452H-77.924C-77.657-145.458-75.8-145.546-72.359-145.726-68.753-145.906-64.191-146.046-58.797-146.14-53.372-146.23-48.448-146.278-44.031-146.278-38.489-146.278-37.661-143.669-37.661-142.113-37.661-140.365-38.756-138.497-41.827-138.497-44.852-138.497-48.929-138.133-53.943-137.414-57.185-136.952-59.282-135.789-60.355-133.861-61.601-131.616-62.497-128.29-63.012-123.977-63.919-116.405-64.377-96.376-64.377-64.446V-57.837C-64.377-57.739-64.373-57.66-64.365-57.599L-30.536-58.147C-29.812-58.147-29.118-58.477-28.416-59.152-26.906-61.059-22.593-66.886-15.598-76.48-8.235-86.584-2.647-94.202 1.505-99.788 9.22-109.894 14.181-116.369 16.384-119.215 18.642-122.131 22.075-125.944 26.585-130.542 31.197-135.248 35.476-138.701 39.308-140.807 46.084-144.488 56.031-146.278 69.714-146.278H89.268C91.612-146.278 97.84-146.278 97.84-142.113 97.84-140.365 96.673-138.497 93.399-138.497" fill="#ffffff"/>
<path transform="matrix(1,0,0,-1,0,500)" d="M1019.994 154.147H53.976015V160.27501H1019.994Z" fill="#ffffff"/>
<path transform="matrix(1,0,0,-1,520.8907,337.31159)" d="M0 0C-1.029 .414-1.917 .946-2.932 1.14-4.579 1.454-6.042 2.022-7.51 2.569-10.429 3.656-13.378 4.642-16.684 4.96-16.998 4.991-17.319 5.044-17.608 5.134-20.786 6.126-24.18 5.886-27.266 5.338-30.147 4.825-32.706 3.455-34.058 1.32-34.277 .975-34.206 .685-34.053 .397-33.283-1.058-31.72-2.08-29.856-2.683-28.074-3.26-26.018-3.352-24.101-3.744-20.505-4.479-16.818-4.142-13.222-3.65-9.545-3.146-6.1-2.066-2.631-1.084-1.768-.84-.669-.868 0 0M48.182-12.411C44.376-12.441 41.973-13.842 41.114-16.071 40.372-17.996 41.823-19.091 44.479-18.824 45.747-18.696 46.402-17.807 47.24-17.18 47.785-16.772 47.615-16.373 47.38-15.91 47.163-15.481 47.431-15.01 48.016-14.891 48.752-14.742 48.924-15.282 49.135-15.645 49.34-15.996 49.308-16.38 49.129-16.732 48.28-18.401 46.368-19.962 43.324-19.889 42.139-19.861 40.795-19.795 39.979-19.031 39.064-18.175 38.135-17.359 37.972-16.153 37.734-14.398 37.805-12.851 40.232-11.862 40.453-11.771 40.67-11.657 40.839-11.522 41.178-11.251 41.08-10.93 40.625-10.891 39.34-10.782 38.081-10.366 36.864-10.366 35.053-10.368 33.357-10.054 31.841-9.56 29.957-8.947 28.641-9.308 27.308-10.155 23.316-12.69 19.007-14.922 14.51-16.974 12.612-17.84 12.519-18.445 14.223-19.501 14.462-19.65 14.738-19.771 15.006-19.894 17.061-20.831 19.176-21.648 21.476-22.286 23.203-22.765 24.938-23.242 26.691-23.66 29.021-24.215 31.463-24.346 33.926-24.356 36.353-24.366 38.767-24.459 41.161-24.015 43.755-23.535 46.403-23.36 48.679-22.06 50.891-20.796 52.365-19.541 52.844-17.4 53.306-15.335 51.958-14.215 50.292-12.992 49.662-12.53 48.874-12.375 48.182-12.411M55.326-9.401C54.646-10.364 53.54-10.795 52.039-10.783 51.412-10.778 50.783-10.844 49.792-10.897 51.692-11.673 52.514-12.87 53.848-13.718 54.871-14.369 55.143-15.134 54.876-16.082 54.609-17.026 54.514-17.994 54.301-18.947 54.157-19.587 53.899-20.197 53.223-20.687 51.96-21.602 50.762-22.563 49.471-23.456 48.724-23.972 47.81-24.296 46.715-24.377 45.116-24.495 43.574-24.818 42.062-25.211 40.148-25.709 38.161-25.626 36.185-25.53 35.734-25.508 35.283-25.425 34.846-25.516 32.25-26.055 29.765-25.578 27.304-25.073 24.185-24.433 20.887-24.136 18.143-22.744 15.667-22.471 13.947-21.206 11.911-20.352 9.98-19.541 8.131-19.172 5.828-20.081 1.68-21.718-2.908-22.513-7.643-22.781-9.135-22.866-10.586-22.574-12.021-22.3-12.456-22.217-12.892-22.055-13.326-22.059-17.078-22.092-19.923-20.404-23.045-19.339-25.019-18.666-26.157-17.256-25.915-15.455-25.782-14.462-25.761-13.487-25.46-12.487-24.981-10.892-23.448-9.859-22.169-8.675-21.945-8.468-21.566-8.295-21.211-8.217-19.001-7.734-16.821-7.136-14.452-7.183-14.272-7.186-14.067-7.187-13.999-7.366-14.24-7.768-14.745-7.61-15.16-7.624-16.925-7.685-18.596-8.094-20.105-8.655-23.045-9.748-24.206-11.731-24.671-13.957-24.755-14.362-24.731-14.783-24.705-15.195-24.594-16.951-23.572-18.269-21.188-18.972-19.4-19.499-17.672-20.13-15.874-20.639-13.987-21.173-11.912-21.259-9.963-21.216-7.555-21.162-5.03-21.202-2.762-20.375-.017-19.374 2.792-18.443 5.191-17.033 6.153-16.468 6.149-16.145 5.25-15.617 3.018-14.307 1.238-12.648-1.226-11.512-2.988-10.7-4.849-9.967-6.466-8.748-4.67-9.029-3.263-9.593-1.837-10.163 .324-11.027 2.151-12.202 3.956-13.367 5.052-14.075 6.393-14.537 7.395-15.323 7.775-15.621 8.185-15.613 8.828-15.263 11.734-13.68 14.495-11.963 17.529-10.496 19.172-9.701 20.705-8.789 22.27-7.914 22.878-7.573 22.836-7.228 22.143-6.952 21.418-6.662 20.716-6.372 19.889-6.199 17.872-5.777 15.806-5.44 14.065-4.486 13.158-3.989 11.947-3.854 10.9-3.498 9.925-3.167 8.857-2.941 7.933-2.534 6.495-1.902 4.949-1.98 3.559-2.366 .902-3.103-1.952-3.304-4.595-4.026-6.764-4.62-9.084-4.743-11.289-5.217-13.359-5.662-15.485-5.446-17.592-5.432-18.359-5.427-19.149-5.299-19.887-5.395-21.011-5.54-21.972-5.265-23.023-5.136-25.019-4.892-26.795-4.212-28.803-3.977-30.256-3.807-32.086-3.619-32.953-2.337-33.325-1.788-34.258-1.444-34.732-.914-35.923 .416-35.683 1.975-34.059 3.272-32.222 4.738-29.953 5.796-27.266 6.27-24.215 6.808-21.146 6.909-18.092 6.149-17.13 5.91-16.07 5.874-15.06 5.724-11.928 5.26-9.297 3.944-6.387 3.098-5.384 2.807-4.455 2.391-3.418 2.112-2.238 1.796-1.008 1.549 .074 1.029 1.111 .53 2.127 .502 3.446 .885 9.731 2.709 15.857 4.748 21.699 7.206 23.854 8.113 25.79 9.272 28.05 10.062 32.22 11.52 35.823 13.616 39.77 15.323 40.591 15.678 41.527 15.898 42.41 16.181 45.227 17.083 47.989 18.089 50.873 18.863 54.71 19.892 58.658 20.374 62.739 19.429 63.902 19.16 64.821 18.72 65.645 18.123 66.187 17.731 66.54 17.221 67.182 16.884 67.577 16.677 67.759 16.314 67.622 16.018 67.017 14.716 67.324 13.255 66.2 12.041 65.874 11.689 65.594 11.348 65.037 11.177 64.519 11.498 64.788 11.86 65.03 12.05 66.259 13.016 66.002 14.288 66.497 15.401 66.605 15.642 66.5 15.837 66.384 16.058 65.592 17.568 63.646 18.487 61.366 18.55 58.225 18.636 55.448 17.991 52.739 16.872 49.107 15.371 45.464 13.863 42.298 11.917 39.131 9.971 35.512 8.59 31.924 7.174 27.886 5.581 23.893 3.933 19.85 2.349 18.113 1.668 16.253 1.108 14.368 .667 12.284 .18 10.48-.683 8.484-1.292 8.495-1.684 8.916-1.819 9.321-1.963 11.453-2.719 13.593-3.464 15.714-4.236 17.045-4.721 18.389-5.119 19.904-5.25 21.205-5.363 22.262-5.982 23.431-6.366 24.279-6.644 24.851-6.634 25.693-6.227 28.234-5.003 30.91-3.912 33.57-2.835 34.923-2.287 36.403-1.763 37.91-1.359 40.204-.743 42.14 .349 44.329 1.112 48.118 2.434 52.088 2.888 56.169 2.207 59.799 1.602 62.054-.599 62.578-2.933 62.619-3.111 62.611-3.305 62.563-3.483 61.929-5.872 60.495-7.897 57.478-9.224 56.758-9.541 56.059-9.643 55.273-9.427 56.249-8.989 57.471-8.839 58.272-8.216 59.513-7.252 60.469-6.231 61.115-4.914 62.432-2.231 59.037 1.287 54.773 1.188 50.423 1.087 46.545 .1 43.181-1.79 39.488-3.865 35.807-5.941 31.763-7.664 31.343-7.843 31.088-8.071 31.079-8.491 35.68-9.893 40.483-10.642 45.52-10.404 46.868-10.34 48.198-10.267 49.553-10.295 51.026-10.325 52.519-10.308 53.844-9.677 54.255-9.481 54.788-9.373 55.326-9.401" fill="#ffffff"/>
</g>
<text fill="#ffffff" xml:space="preserve" transform="matrix(1 0 -0 1 0 500)" font-size="29.6715" font-family="MyriadPro"><tspan y="-404.7002" x="974.5283 989.2751" fill="#ffffff">TM</tspan></text>
</svg>