<svg width="35" height="68" viewBox="0 0 35 68" fill="none" xmlns="http://www.w3.org/2000/svg">
<path d="M5.99994 17.2998C6.4666 16.4998 6.89996 15.6999 7.29996 14.8999C7.39996 14.7999 7.89993 13.9999 7.89993 13.8999C6.09993 12.0999 4.19994 10.1 4.09994 7.5C4.09994 7.6 3.49994 8.4999 3.49994 8.3999C2.49994 10.3999 0.899944 12.1999 0.599944 14.3999C0.399944 17.0999 2.49995 18.9001 4.19995 20.6001C4.09995 20.5001 5.89994 17.5998 5.99994 17.2998Z" fill="#FEFEFE"/>
<path d="M4.49991 33.8999C4.16658 34.6999 3.86658 35.5332 3.59991 36.3999C3.26658 37.1999 2.96659 38.0332 2.69992 38.8999C2.59992 38.9999 2.29993 39.9 2.29993 40C6.59993 43.1 10.2999 46.9999 13.2999 51.3999C15.7999 54.8999 18.0999 58.9998 18.9999 63.2998C19.1999 64.0331 19.2999 64.8001 19.2999 65.6001C19.4333 66.2001 19.5332 66.7665 19.5999 67.2998C19.7332 66.8998 19.8666 66.5001 19.9999 66.1001C22.1999 45.4001 4.49991 33.8999 4.49991 33.8999Z" fill="#FEFEFE"/>
<path fill-rule="evenodd" clip-rule="evenodd" d="M34.4999 31.5C34.4333 31.7667 34.3999 32.0002 34.3999 32.2002C33.6999 35.4002 31.5999 38.4 28.7999 40C27.9 40.5 26.9999 40.8 25.9999 41C26.1333 42.5333 26.0999 44.0668 25.8999 45.6001C25.5999 47.4001 24.8999 49.1002 23.9999 50.7002C23.9999 50.7669 23.9666 50.8667 23.8999 51C23.9999 50.7 24.0999 50.5999 23.8999 50.8999C23.6999 51.1666 23.5 51.4335 23.2999 51.7002C23.0999 52.0335 22.8999 52.3 22.6999 52.5C22.8999 51.8333 23.0666 51.1332 23.1999 50.3999C23.5999 47.2999 23.2999 44.1002 22.2999 41.2002C19.4999 41.0002 16.7999 40.1999 14.3999 38.8999C12.5999 37.8999 10.9999 36.7002 9.69994 35.2002C9.03328 34.4002 8.4666 33.5669 7.99993 32.7002C7.59993 32.0002 6.99994 31.0001 7.19994 30.1001C7.29994 29.8001 7.49994 29.4001 7.69994 29.1001C8.16661 28.2334 8.66661 27.3332 9.19994 26.3999C9.49994 25.8999 9.79993 25.0001 10.3999 24.6001C11.0999 24.0001 12.4 24.1998 13.3 24.2998C15.2999 24.5998 17.0999 25.7 18.6999 27C21.3999 29.1 23.3999 32.0999 24.6999 35.3999C24.7666 35.6666 24.8666 35.9335 24.9999 36.2002C25.0999 36.5002 26.1999 36.2998 26.3999 36.2998C28.1999 36.1998 30.3999 35.8999 31.0999 33.8999C31.9999 31.1999 29.8999 28.2999 28.0999 26.3999C24.8999 22.7999 20.4999 20.8 16.5999 18C13.5999 15.9 10.0999 12.4 9.89993 8.5C9.89993 8.16667 9.89993 7.83333 9.89993 7.5C10.1999 3.7 13.0999 0.799805 13.0999 0.799805L12.8999 1.1001C12.9666 0.966764 13.0333 0.866471 13.0999 0.799805C12.5999 1.8998 12.4999 3.0998 12.6999 4.2998C13.3999 8.2998 16.7999 11.3001 19.8999 13.6001C23.1999 15.8001 26.9 17.5999 29.7999 20.3999C32 22.4999 33.6999 25.1001 34.2999 28.1001C34.5666 29.2334 34.6333 30.3667 34.4999 31.5ZM18.7999 34.7998C17.7999 33.3998 16.5999 32.2002 15.0999 31.2002C14.0999 30.5002 12.9999 29.9 11.8999 29.5C12.4333 30.2333 13.0333 30.9 13.6999 31.5C15.1999 32.9 16.9999 33.9998 18.7999 34.7998Z" fill="#FEFEFE"/>
</svg>
