<svg width="132" height="131" viewBox="0 0 132 131" fill="none" xmlns="http://www.w3.org/2000/svg">
<path d="M131.3 65.1001C132.7 96.7001 109.5 124.7 76.1 129.9C40.7 135.4 10.5 112 2.59996 80.8001C-6.30003 45.5001 14.9999 10.6999 50.7999 2.39992C62.9999 -0.400078 75.5 0.40002 87.6 4.50002C90.7 5.60002 91.5 7.29992 90.5 10.3999C87.8 18.6999 91.2 24.3999 98 26.8999C99.8 27.5999 100.4 28.7 100.2 30.7C99.2999 40.1 106.6 47.3999 116.6 44.3999C119 43.5999 120.9 43.9999 122.1 46.3999C123.1 48.0999 124.5 49.5001 126.2 50.3001C130.8 52.1001 131.8 55.7001 131.4 60.1001C131.2 61.8001 131.3 63.4001 131.3 65.1001Z" fill="#BA9660"/>
<path d="M5.79998 66.1001C5.09998 34.7001 28.5 10.7 56.5 6.3C65.3 4.9 74.1999 5.6999 82.7999 8.1999C84.7999 8.7999 85.7999 9.09986 85.2999 11.8999C83.8999 19.7999 86.5999 26.1999 93.7999 30.1999C95.2999 31.0999 95.6999 31.9999 95.7999 33.6999C96.1999 44.4999 105.1 51.4999 115.6 49.3999C117.1 49.0999 118.1 49.3 119.1 50.5C120.7 52.4 122.5 54.0999 124.8 55.1999C126.2 55.7999 126.3 56.7 126.5 58C131 88.3 108.9 118.2 78.7999 124.4C44.2999 131.6 13.9 107.8 7.09996 78.6999C6.09996 74.1999 5.69998 69.6001 5.79998 66.1001Z" fill="#FBFCFB"/>
<path d="M92.5001 92.2C92.5001 96.8 89.2001 100.3 84.7001 100.3C80.3001 100.3 76.1001 96.5 76.1001 92.2C76.1001 88.1 79.9001 84.1 84.1001 84C88.5001 83.8 92.5001 87.7 92.5001 92.2Z" fill="#BA9660"/>
<path d="M52.1 18.5C57.1 18.5 60.4 21.7 60.3 26.5C60.3 31 56.9 34.3 52.3 34.3C47.8 34.3 43.8 30.5 43.9 26.2C43.9 21.7 47.4 18.5 52.1 18.5Z" fill="#BA9660"/>
<path d="M38.9 58.3999C38.9 63.0999 35.6001 66.3999 31.0001 66.3999C26.3001 66.3999 23.2 63.3 23.2 58.5C23.1 54 26.3001 50.8 30.8001 50.7C35.5001 50.7 38.9 53.8999 38.9 58.3999Z" fill="#BA9660"/>
<path d="M41.7 84.5C44.3 84.4 45.9 86.5 46.3 89.5C46.6 92.2 44 94.7 41.2 94.7C37.8 94.8 35.9 92.8001 35.8 89.8001C35.8 86.8001 37.5 84.6 41.7 84.5Z" fill="#BA9660"/>
<path d="M66.7999 59.4C66.8999 55.4 69.3 52.9002 72 53.3002C75 53.7002 76.9999 55.5001 76.7999 58.7001C76.6999 62.1001 74.4999 63.9002 71.5999 63.8002C68.5999 63.7002 66.5999 61.7 66.7999 59.4Z" fill="#BA9660"/>
<path d="M103.2 69.8002C100.2 69.4002 98.4999 67.8002 98.2999 64.8002C98.1999 61.9002 100.6 59.7002 103.6 59.8002C106.7 60.1002 108.3 62 108.2 64.9C108.1 67.9 106.2 69.5002 103.2 69.8002Z" fill="#BA9660"/>
<path d="M57.3 106.9C58.9 107.1 60 108.1 60.3 109.7C60.6 111.8 59.4 112.9 57.6 113C56 113.1 54.7 112.4 54.5 110.5C54.4 108.4 55.7 107.6 57.3 106.9Z" fill="#BA9660"/>
</svg>
