<svg width="29" height="34" viewBox="0 0 29 34" fill="none" xmlns="http://www.w3.org/2000/svg">
<path d="M14.7 14.2002L14.6 23.3999C14.6 25.4999 12.8999 27.3003 10.7999 27.3003C8.69993 27.3003 6.8999 25.4999 6.8999 23.3999C6.8999 21.2999 8.69993 19.6001 10.7999 19.6001C12.2999 19.6001 13.6999 20.5003 14.2999 21.8003L12.3999 13.5C11.8666 13.4333 11.3333 13.3999 10.7999 13.3999C5.19993 13.3999 0.699951 17.8999 0.699951 23.3999C0.699951 28.9999 5.19993 33.5 10.7999 33.5C16.2999 33.5 20.7999 28.9999 20.7999 23.3999C20.7999 19.2999 18.3 15.7002 14.7 14.2002Z" fill="#AE8C5B"/>
<path d="M20.7999 23.3999L14.6 22.1001V1.7002C14.6 1.1002 15.1 0.700195 15.6 0.700195H20.7999V23.3999Z" fill="#AE8C5B"/>
<path d="M28.6 6.7002L26 10.1001L19 4.6001C18.5 4.3001 18.4999 3.70029 18.7999 3.30029L20.7999 0.700195C20.7999 0.700195 20.8332 0.700195 20.8999 0.700195L28.6 6.7002Z" fill="#AE8C5B"/>
</svg>
