<svg width="136" height="133" viewBox="0 0 136 133" fill="none" xmlns="http://www.w3.org/2000/svg">
<path d="M69.2 132C48.1 132.5 29.2 128.9 10.9 122.3C10.4 122.1 9.80001 121.9 9.30001 121.8C0.700011 118.5 -2.79998 113 3.00002 103.2C22 71.2999 40.8 39.1999 59.7 7.19993C64.6 -1.20007 70.3 -1.10007 75.2 7.19993C94 39.1333 112.833 71.0333 131.7 102.9C132.3 103.967 132.867 105.033 133.4 106.1C136.7 112.4 135.3 117.1 128.9 120.3C121.9 123.8 114.4 126.2 106.7 127.9C93.9 130.6 80.9 132.8 69.2 132Z" fill="#BA9660"/>
<path d="M110 30.4C110 30.7 109.9 31.8999 109.6 33.0999C108.3 37.5999 108.8 41.7 112.5 45C113.9 46.3 114.6 48.1 115.4 49.9C116 51.1666 115.767 52.0666 114.7 52.5999C113.6 53.0999 112.5 53.3 111.6 51.9C110.2 49.7 108.5 47.6999 106.9 45.5999C104 41.5999 103.5 37.1 105.2 32.5C107 27.7 104.9 23.9999 101.9 20.6999C101.1 19.7999 100.4 19.1 101.1 18C102 16.6 103 17.6999 103.9 18.1999C107.5 20.0999 110.1 24.8 110 30.4Z" fill="#BA9660"/>
<path d="M68.6 127.1C48.9 127.5 29.8 124.1 11.4 117.2C4.30001 114.5 3.60004 112.7 7.50004 106C26.5 73.6667 45.5 41.3667 64.5 9.10002C66.6 5.50002 68.3 5.50007 70.3 8.90007C89.7 41.7667 109.067 74.6667 128.4 107.6C131.2 112.5 130.7 114.1 125.5 116.3C112.8 121.9 99.5 124.7 85.8 126.4C80 127.1 74.3 127 68.6 127.1Z" fill="#FBFBFB"/>
<path d="M35.5999 115.6C30.6999 115.7 26.2999 114.1 22.2999 111.2C20.9999 110.3 19.1999 109 20.5999 106.9C22.0999 104.5 23.7999 106.1 25.0999 107.1C28.8999 109.9 33.1999 111.4 37.6999 112.7C38.6999 113 40.8 112.6 40.5 114.4C40.3 115.7 38.4999 115.6 37.2999 115.6C36.7666 115.533 36.1999 115.533 35.5999 115.6Z" fill="#BA9660"/>
<path d="M36.6 86.7C38.4 86.6 41.9 90.8 41.9 92.6C41.8 93.9 40.6 94.9 39.8 94.6C37.3 93.7 35.7 91.7 35 89.1C34.6 87.7 35.4 86.8 36.6 86.7Z" fill="#BA9660"/>
<path d="M83.6998 60.1C82.2998 61.6 83.4999 65.1 80.0999 65.5C78.8999 65.6 77.3999 64.4 77.9999 63.1C78.9999 61 78.2998 57.5 81.6998 57.1C83.0998 56.9 83.5998 58.4 83.6998 60.1Z" fill="#BA9660"/>
<path d="M91.9 104.7C91.4 106 90.9 107.2 89.4 107.2C88.2 107.3 85.2 102.6 85.5 101C85.8 99.8 86.6999 98.7 88.0999 99C91.0999 99.7 90.5 102.9 91.9 104.7Z" fill="#BA9660"/>
<path d="M55.6001 57.6C55.0001 60.6 52.0001 60.2 50.0001 61C48.7001 61.5 47.3001 60.6999 47.4001 59.1999C47.6001 55.6999 51.1001 56.5 53.2001 55.4C54.4001 54.8 55.4001 56 55.6001 57.6Z" fill="#BA9660"/>
<path d="M98.9999 85.4C98.8999 87 97.7999 88.1 96.6999 87.9C94.4999 87.5 92.4999 86.2 91.8999 83.8C91.5999 82.6 92.5998 81.7 93.7998 81.7C96.4998 81.7 97.6999 83.7 98.9999 85.4Z" fill="#BA9660"/>
<path d="M63.4999 100.3C62.9999 103.5 60.3999 103.3 58.4999 103.9C56.9999 104.4 56.2998 103.2 56.2998 101.7C56.3998 98.4999 59.3999 99.2 61.0999 98.4C62.2999 97.8 62.8999 99.5 63.4999 100.3Z" fill="#BA9660"/>
<path d="M62.5999 74.2C63.9999 75.4 66.8999 74.7 67.0999 77.7C67.1999 79 66.3999 80.3 65.2999 79.9C63.3999 79.3 60.7999 79.4 60.2999 76.7C59.9999 75.3 60.7999 74.4 62.5999 74.2Z" fill="#BA9660"/>
<path d="M77.0999 120C77.1999 121.3 75.9999 122.1 74.2999 122.1C72.4999 122.2 71.6 120.8 71.4 119.4C71.2 117.7 72.5999 116.5 74.1999 116.6C75.6999 116.6 76.9999 117.6 77.0999 120Z" fill="#BA9660"/>
<path d="M71.3001 39.5C70.7001 40.9 69.9001 42.2 68.1001 42C66.6001 41.9 65.6002 40.8 65.5002 39.3C65.4002 37.6 66.8001 36.4 68.3001 36.5C69.8001 36.5 71.0001 37.7 71.3001 39.5Z" fill="#BA9660"/>
</svg>
