<svg width="113" height="144" viewBox="0 0 113 144" fill="none" xmlns="http://www.w3.org/2000/svg">
<path d="M74.4 28.8C78.2 28.8 81.6 28.8 85.1 28.8C91.3 28.8 95.2 31.5001 96.6 37.6001C97.3 40.6001 97.9 42.6999 101.8 42.3999C105.7 42.0999 107.4 44.8999 108.2 48.3999C108.667 50.7999 109.167 53.1667 109.7 55.5C110.4 58.6 109.5 60.7001 106 60.1001C101.4 59.3001 100.5 61.8001 100 65.6001C97.7 81.8001 95.2 97.9001 92.8 114.1C91.8 120.5 90.9 126.8 90.1 133.2C89.3 140.4 86 143.5 78.7 143.5C63 143.5 47.3 143.3 31.6 143.6C22.9 143.9 20.2 139.6 19.1 132.3C16.3667 113.167 13.6667 94 11 74.8C10.4 71 9.70002 67.1999 9.50002 63.3999C9.40002 60.4999 8.20002 60.0001 5.50002 60.1001C1.00002 60.3001 0.199996 59.1 1.1 54.8C1.4 53.2001 2 51.6 2.1 50C2.7 44.9 5.10002 41.9 10.5 42.2C12.1 42.2 12.4 41.4001 12.7 40.1001C13.4 37.5001 14 34.7001 15.8 32.6001C18 30.0001 20.9 28.7 24.4 28.7C38.2 28.8 51.9 28.5999 65.7 28.8999C68.8 28.8999 69.6 27.8 70.2 25.3C71.2 20.6 72.7 16.0999 73.4 11.3999C74.4 3.8999 79.5 1.0999 86.6 0.899902C93.9 0.699902 101.2 0.799951 108.5 0.699951C110.4 0.699951 112.2 0.900049 112.3 3.30005C112.5 6.00005 110.3 5.80005 108.6 5.80005C101.3 5.80005 94 5.80005 86.7 5.80005C81.2 5.70005 79.8 6.9001 78.5 12.1001C77.2 17.5001 75.9 22.9 74.4 28.8Z" fill="#BA9660"/>
<path d="M95.7999 60.1001C94.6999 67.1001 93.4999 73.7 92.6999 80.3C92.4999 82.1 91.8999 82.5 90.1999 82.5C84.1999 82.3667 78.1666 82.3332 72.0999 82.3999C70.3999 82.4999 69.2999 81.6 68.0999 80.7C59.7999 75.1 50.6999 75.1999 42.5999 80.8999C41.2999 81.8999 40.1999 82.4999 38.4999 82.3999C32.3999 82.3999 26.1999 82.3 19.9999 82.5C17.7999 82.5 16.7999 82.0001 16.5999 79.6001C15.9999 74.2001 15.0999 68.7999 14.2999 63.3999C14.0999 61.5999 13.6999 60.1001 16.5999 60.1001C42.8999 60.2001 69.1999 60.1001 95.7999 60.1001Z" fill="#FCFCFC"/>
<path d="M87.5001 116.1C86.5001 122.4 85.4001 128.4 84.5001 134.4C84.1001 137.5 82.5 138.7 79.3 138.6C62.9667 138.533 46.6334 138.533 30.3 138.6C26.9 138.6 25.3 137.4 24.8 134.1C24.1 128.9 23.2 123.9 22.4 118.8C22.1 116.7 22.7001 116 25.0001 116.1C30.4001 116.2 36 116.7 41.4 115.6C42.8 115.3 43.4 116.2 44.3 116.7C51.5 120.4 58.8 120.8 66.2 117.1C67.2 116.6 68.5 116.1 69.6 116.1C75.5 116 81.4001 116.1 87.5001 116.1Z" fill="#FBFCFC"/>
<path d="M55.5999 114.6C46.6999 114.6 38.8999 106.5 38.8999 97.3C38.8999 89.1 46.8999 81.5001 55.1999 81.6001C63.9999 81.7001 71.6999 89.5 71.7999 98.2C71.8999 107.3 64.6999 114.7 55.5999 114.6Z" fill="#FBFBFB"/>
<path d="M6.5 55C6.6 54.1 6.69995 53.3 6.69995 52.5C6.99995 48.3 8.89999 47.2001 13.3 47.3001C39.8 47.6001 66.3 47.5 92.8 47.5C94.7333 47.5 96.6666 47.5 98.6 47.5C102.9 47.6 104.4 49.2 104.2 53.7C104.1 54.6 104 55.2 102.9 55.2C102.3 55.2 101.8 55.2 101.2 55.2C70.2 55.2 39.1666 55.2 8.09998 55.2C7.49998 55.2 7 55.1 6.5 55Z" fill="#FCFCFC"/>
<path d="M92.5 42.6001C68.1 42.6001 43.9 42.6 19.6 42.7C17.7 42.7 17.2 42.2999 17.7 40.3999C19 35.4999 21.2 33.7 26.4 33.7C44.8 33.7 63.2 33.7 81.6 33.7C90 33.7 90.4 34.0001 92.5 42.6001Z" fill="#FAFBFA"/>
<path d="M38.7 111C33.3 111 28.4 110.9 23.5 111C22 111 21 111 20.7 109C20.1 103.2 19.1 97.4002 18.3 91.6002C17.9 88.8002 18.1 87.0001 21.9 87.3001C26.5 87.7001 31.2 87.4 36.3 87.4C32.7 95.6 33 103.4 38.7 111Z" fill="#FBFCFB"/>
<path d="M74.0999 87.5C80.0999 87.5 85.6999 87.5 91.6999 87.5C90.5999 94.8 89.4999 102 88.4999 109.2C88.1999 111.3 86.6999 111 85.3999 111C81.3999 111 77.3999 111 72.8999 111C77.7999 103.4 77.9999 95.6 74.0999 87.5Z" fill="#FBFBFB"/>
</svg>
