<svg width="151" height="88" viewBox="0 0 151 88" fill="none" xmlns="http://www.w3.org/2000/svg">
<path d="M0.699769 65.1998C0.299769 55.1998 5.39979 47.4998 11.5998 40.3998C14.5998 36.9998 17.8998 34.0998 18.3998 28.8998C18.7998 25.2998 22.2998 22.7998 25.3998 20.6998C28.9998 18.0998 32.8998 16.2 36.8998 14.6C39.9998 13.4 43.0998 12.8999 43.4998 8.49989C43.6998 5.89989 46.5998 4.89979 48.8998 3.89979C53.2998 1.89979 57.9998 1.09994 62.6998 0.799939C74.8998 0.0999395 87.0998 -0.200207 99.0998 2.89979C103 3.99979 106.1 5.89989 107.4 9.99989C108 11.5999 109.1 12.3998 110.7 13.1998C117.8 16.5998 125.3 19.2998 130.4 25.6998C131.7 27.3998 133.1 28.9 132.8 31.1C132.5 33.1 133.9 34.0999 134.9 35.2999C140.7 42.1999 147.2 48.5 149.6 57.6C152.4 68.1 150.2 77.1 142.4 84.6C137.6 89.2 132.8 89.0999 128 84.4999C124.2 80.7999 120.4 76.9998 116.6 73.1998C115.3 71.8998 114.5 71.7999 112.5 72.7999C106.5 75.8999 100.2 73.8998 94.2997 71.8998C91.6997 70.9998 89.8997 70.7 87.7997 72.6C85.9997 74.3 83.4998 74.1 81.1998 74.1C76.6664 74.1 72.1331 74.0666 67.5998 73.9999C66.6998 73.9999 65.5998 74.1998 65.1998 73.6998C59.7998 67.9998 54.2998 72.8999 48.9998 73.4999C45.1998 73.9999 41.3998 74.9 38.0998 72.1C36.6998 71 36.0997 72.0998 35.2997 72.6998C31.0997 75.7998 27.4998 79.5999 23.9998 83.4999C17.7998 90.2999 11.8998 88.6998 6.39984 82.1998C1.99984 76.9998 0.699769 72.3998 0.699769 65.1998Z" fill="#BA9660"/>
<path d="M75.2998 69.6002C74.8998 69.6002 74.4998 69.6002 74.0998 69.6002C64.6998 69.8002 63.9998 69.5002 61.2998 60.6002C56.4998 45.4002 51.9998 30.1 47.2998 14.9C46.0998 10.9 48.6998 9.20016 51.4998 8.10016C55.9998 6.40016 60.7998 6.20006 65.4998 5.50006C76.6998 4.10006 87.5998 5.90006 98.4998 8.00006C102.4 8.70006 103.7 10.9001 102.6 14.8001C97.8998 30.9001 93.1998 47.0002 88.6998 63.1002C87.4998 67.3002 85.4998 69.5 81.0998 69.4C79.0998 69.3 77.1998 69.4 75.2998 69.4C75.2998 69.4666 75.2998 69.5335 75.2998 69.6002Z" fill="#FBFCFB"/>
<path d="M105.6 69.0001C104.2 69.0001 103.4 69.1001 102.6 69.0001C94.0001 68.3001 92.7002 66.7001 95.0002 58.7001C98.7002 45.6001 102.6 32.5 106.4 19.4C106.7 18.5 106.2 16.5002 108.5 17.6002C114.6 20.6002 121 23 126 27.9C128.4 30.3 129 32.6 127.3 35.9C122.2 45.4 117.5 55.1002 112.8 64.8002C111.1 68.2002 109 70.2001 105.6 69.0001Z" fill="#FBFBFB"/>
<path d="M44.2998 69.1C41.7998 69.6 39.5998 68 38.2998 65.3C33.0998 54.9 28.0998 44.3998 22.7998 33.8998C21.8998 32.0998 22.3999 30.6999 23.3999 29.4999C27.7999 24.0999 33.4998 20.8 39.9998 18.8C41.8998 18.2 43.2998 18.4 43.9998 21.1C48.1998 35.4 52.5998 49.6 57.1998 63.8C57.6998 65.4 57.3998 65.9999 55.9998 66.4999C52.3998 67.6999 48.7998 69 44.2998 69.1Z" fill="#FBFCFB"/>
<path d="M131.2 39C137.9 45.5 143.7 52.0999 145.7 61.3999C147.2 68.4999 143.7 78.2001 138.2 81.8C135.9 83.3 134 83.5 132 81.5C127.4 77 122.8 72.4 118.1 68C116.6 66.7 117.7 65.7999 118.2 64.8999C122.4 56.3999 126.7 47.9 131.2 39Z" fill="#FBFBFB"/>
<path d="M5.40002 68.7C5.20002 59.1 7.7 52.3001 13 46.5001C15.2 44.1001 16.9 39.5001 19.6 39.8001C22 40.1001 22.6999 45.0001 24.1999 47.8001C27.1999 53.6001 30 59.5001 32.9 65.3001C33.6 66.6001 34.2 67.7001 32.6 68.8001C27.7 72.3001 23.8999 76.8001 19.7999 81.0001C17.3999 83.5001 15.1999 83.5 12.6999 81.4C8.09995 77.7 5.40002 73.1 5.40002 68.7Z" fill="#FBFCFB"/>
</svg>
