<svg width="132" height="134" viewBox="0 0 132 134" fill="none" xmlns="http://www.w3.org/2000/svg">
<path d="M66.7 133.2C55.3 133.2 43.9 133.2 32.5 133.2C20.7 133.3 11.8 125.5 10.2 113.6C8.59999 102.3 6.8 91 5.3 79.7C5.1 78 4.79998 77.3001 2.99998 77.3001C1.29998 77.3001 0.199995 76.0999 0.299995 74.3999C0.499995 72.6999 1.79999 72.0999 3.19999 71.8999C4.49999 71.7999 5.69997 71.9001 6.89997 72.1001C8.39997 72.2001 9.09997 71.8001 9.39997 70.1001C11.5 54.5001 24 47.0999 37.2 44.3999C38.8 43.9999 40.5 43.5001 42.1 43.6001C47.8 44.3001 52 42.6 56.1 38C61.6 31.8 73.7 33.4999 78 40.3999C79.6 43.0999 81.4 43.7001 84.2 43.6001C90.3 43.4001 96.3 44.5001 102.2 46.6001C113.1 50.5001 120.5 57.7001 123 69.1001C123.5 71.8001 124.3 72.6 126.8 72.2C127.6 72.1 128.5 72.2001 129.3 72.3001C130.7 72.5001 131.4 73.2 131.5 74.7C131.7 76.3 130.6 77.2 129.5 77.2C127.3 77.3 126.7 78 126.4 80.2C125 91.9 123.2 103.5 121.6 115.1C120.3 125.3 113.3 132.5 103 132.9C90.9 133.3 78.8 133 66.7 133C66.7 133.067 66.7 133.133 66.7 133.2Z" fill="#000104"/>
<path d="M64.6 22.7C66.9 19.3 64.5999 16.2 62.9999 12.9C61.2999 9.19995 61.8999 5.50005 63.9999 2.00005C64.5999 0.900049 65.3999 -0.100048 66.8999 0.399952C68.5999 0.999952 68.3 2.70005 67.8 3.50005C65 7.60005 66.8 11.1001 68.8 14.8001C70.5 18.1001 70 21.4 67.7 24.4C67.1 25.2 66.2 25.7001 65.2 25.3001C64.2 24.9001 64.7 23.9 64.6 22.7Z" fill="#010206"/>
<path d="M82 24.1002C81.9 21.9002 80.8 20.7001 80 19.3001C77.9 15.5001 78.2 11.7001 80.2 8.00006C80.8 6.80006 81.7 5.90006 83.1 6.50006C84.7 7.20006 84.2 8.40016 83.7 9.60016C82.1 12.7002 82.6 15.6 84.5 18.4C86.7 21.7 86.7 25 84.7 28.4C83.9 29.6 83.2 30.9 81.5 30.2C79.7 29.4 80.5 28.1001 81 26.8001C81.4 25.8001 82.3 24.9002 82 24.1002Z" fill="#010205"/>
<path d="M51.3999 8.6001C49.0999 12.5001 51.3 16.1 53.2 19.7C54.9 23 53.5999 25.8 51.8999 28.5C51.3999 29.4 50.5999 30.1 49.4999 29.5C48.5999 29 48.2 28.1001 48.7 27.1001C50.6 23.6001 48.8 20.7001 47.3 17.6001C45.7 14.2001 46.1 10.7999 47.8 7.3999C48.4 6.2999 49.2999 5.89995 50.4999 6.19995C51.5999 6.49995 51.4999 7.4001 51.3999 8.6001Z" fill="#010206"/>
<path d="M66.1 89.2C82.8 89.2 99.6 89.2001 116.4 89.1001C119.6 89.1001 120.2 89.7 119.5 93C118.2 99.6 117.6 106.3 116.7 112.9C115.3 123.4 109.8 128.3 99.3 128.2C83.6 128.2 67.9 128.1 52.3 128.1C45.7 128 39.1 128.2 32.5 128C22.6 127.8 16.3 121.9 15.1 112C14.3 105.4 13.5 98.8 12.2 92.2C11.6 89.2 12.4 89.1001 14.9 89.1001C32 89.2001 49 89.1001 66.1 89.1001C66.1 89.1001 66.1 89.1333 66.1 89.2Z" fill="#FBFBFB"/>
<path d="M66.2 72.2C49.8 72.2 33.5 72.1001 17.2 72.3001C13.8 72.3001 14 70.9 14.6 68.7C17.3 59.6 23.6 54.1001 32.3 51.0001C37.3 49.2001 42.5 48.4001 47.9 48.5001C61.1 48.6001 74.3 48.1002 87.4 48.6002C98.1 49.0002 107.8 52.2001 114.4 61.5001C114.7 61.8001 115 62.1001 115.1 62.5001C116.7 65.4001 119.2 68.7001 117.9 71.5001C116.9 73.6001 112.9 72.1 110.3 72.2C95.6 72.3 80.9 72.2 66.2 72.2Z" fill="#FBFBFB"/>
<path d="M66.1 77.4C83.2 77.4 100.4 77.3 117.6 77.5C118.9 77.5 121.8 75.9001 121.5 79.1001C121.3 81.3001 122 84.4 117.4 84.4C85.5 84.1 53.6 84.3001 21.8 84.3001C19 84.3001 16.3 84.2 13.5 84.4C11.9 84.5 11.3 84.2001 10.8 82.3001C9.60003 77.4001 9.40001 77.4 14.5 77.4C31.7 77.4 48.9 77.4 66.1 77.4Z" fill="#FCFDFD"/>
<path d="M73.7 43.5C68 43.5 62.9 43.5 57.7 43.5C61.9 38 68.6 37.9 73.7 43.5Z" fill="#FBFBFA"/>
</svg>
