<svg width="135" height="139" viewBox="0 0 135 139" fill="none" xmlns="http://www.w3.org/2000/svg">
<path d="M67.8 138.5C48.4 138.5 29 138.5 9.60004 138.5C3.30004 138.5 0.400024 135.6 0.400024 129.3C0.333358 119.5 0.300049 109.7 0.300049 99.8999C0.300049 92.7999 3.80006 88.6001 11.0001 87.3001C13.2001 86.9001 13.5001 85.7999 13.5001 83.8999C13.3667 76.3666 13.3334 68.8 13.4 61.2C13.4 54.7 16.4001 51.6 23.0001 51C24.5001 50.9 26.0001 50.5001 27.5001 50.3001C34.0001 49.8001 34.0001 49.8001 34.0001 43.1001C34.0001 38.9001 34.1001 34.6001 34.0001 30.3001C33.9001 27.9001 34.9 26.7001 37.4 26.8001C49.1 27.3001 47.1 25.0001 47.3 36.1001C47.3 39.3001 47.6 42.5001 47.2 45.6001C46.7 49.8001 48.4 50.4999 52.2 50.3999C60.7 50.0999 60.7 50.2999 60.6 41.8999C60.6 38.1999 60.7 34.5001 60.6 30.8001C60.6 28.0001 61.9 26.6999 64.6 26.8999C74.7 27.4999 74 24.1001 74.3 36.1001C74.3 37.0335 74.3 38 74.3 39C74.2 50.9 74.2 50.9001 86.2 50.3001C88.3 50.2001 88.6 49.5 88.6 47.7C88.5 42.1 88.7001 36.4001 88.5001 30.8001C88.4001 27.6001 89.7 26.7001 92.7 26.8001C102.6 27.2001 101.8 24.9001 101.8 36.1001C101.8 36.5001 101.8 36.9001 101.8 37.3001C101.8 41.3001 100.4 46.1 102.2 49C104.1 52.1 109.4 49.9001 113.2 50.8001C119.1 52.2001 122.3 55.3 122.4 61.5C122.467 69.1667 122.467 76.8668 122.4 84.6001C122.3 86.6001 122.7 87.2999 125 87.3999C130.5 87.6999 134.7 91.9 134.8 97.5C134.9 108.5 134.9 119.5 134.8 130.5C134.7 135.6 131.6 138.5 126.4 138.5C106.867 138.5 87.3333 138.5 67.8 138.5Z" fill="#000103"/>
<path d="M76.1999 14.4999C76.4999 18.5999 74.4 21.1998 70.9 22.8998C67.5 24.4998 64.1999 23.4999 61.5999 20.9999C58.6999 18.3999 58.1 15.1 59.5 11.3C60.8 7.79996 63.3 5.10001 65.4 2.10001C66.2 0.900005 67.3 0.199956 68.9 1.29996C71.5 2.99996 76.1999 11.3999 76.1999 14.4999Z" fill="#010205"/>
<path d="M31.5 14.3998C32.2 9.09978 35.8 5.19983 38.9 1.19983C40.1 -0.300167 41.6 1.09998 42.3 2.09998C44.4 5.09998 46.9 7.79993 48.2 11.2999C49.6 14.9999 49.2 18.2999 46.3 20.9999C43.6 23.5999 40.3 24.3999 36.9 22.7999C33.5 21.1999 31.3 18.5998 31.5 14.3998Z" fill="#010205"/>
<path d="M103.8 14.7001C103.7 18.7001 101.6 21.3002 98.5002 22.8002C95.3002 24.4002 92.0002 23.7002 89.4002 21.3002C86.9002 19.0002 85.4001 16.2001 86.6001 12.5001C88.0001 8.30011 90.7001 5.00006 93.7001 1.70006C94.5001 0.800059 95.4002 0.20001 96.4002 1.40001C99.7002 5.50001 103.3 9.50006 103.8 14.7001Z" fill="#010104"/>
<path d="M5.19996 115.9C5.19996 109.9 5.09996 104.4 5.19996 99C5.39996 94.8 7.90001 92.3 12 92.3C49.4 92.3 86.8 92.3 124.2 92.3C128.3 92.3 129.6 95.0999 129.7 98.3999C130 104 129.8 109.6 129.8 115.1C128.4 115.8 127.7 114.9 127 114.4C119.9 109.7 113.2 110.3 107.2 116.2C102.4 120.8 100.3 120.8 95.5 116.2C88.7 109.5 80.5 109.5 73.4 116.1C68.3 120.9 66.5 120.9 61.5 116C55.1 109.6 46.8 109.5 40 115.7C34.3 121 32.9 121 27.2 115.5C21.1 109.7 14 109.7 5.19996 115.9Z" fill="#FBFCFB"/>
<path d="M67.6 133.6C48.5 133.6 29.4 133.5 10.3 133.6C6.50001 133.7 5.6 132.2 5.1 128.6C4.1 121.5 9.20001 119.5 13.8 117.1C18.3 114.7 21.6 117.5 24.6 120.4C30.6 126.2 36.9 126.2 42.9 120.3C48.2 115 52.7 114.9 58.1 120.1C64.9 126.4 70.4 126.4 76.9 120C82.1 115 86.7001 115 91.9 120C98.6 126.3 104.1 126.4 110.8 120.2C116 115.2 118.6 115 124.6 119.6C126.6 121.1 129.9 121.4 129.9 125.1C129.7 135.1 130.6 133.5 121.6 133.6C103.6 133.6 85.6 133.6 67.6 133.6Z" fill="#FBFCFB"/>
<path d="M68.7 55.1C81.7667 55.1 94.8334 55.1 107.9 55.1C115.8 55.2 117.5 56.8999 117.5 64.7999C117.5 66.5999 117.3 68.4 117.5 70.1C118.1 74 116.1 74.4998 113.1 73.8998C110.9 73.3998 109.1 72.1999 107.4 70.7999C100.6 65.1999 96.4 65.4 89.7 71.1C83.7 76.3 82.2 76.2999 76.7 70.9999C71.2 65.4999 64.9001 65.1999 59.5001 70.7999C54.6001 75.8999 52 76.4998 46.1 70.3998C41.3 65.4998 35.6 65.5998 30.1 70.3998C28.8 71.3998 27.7 72.6999 26.3 73.4999C21.7 75.9999 18.3 73.9998 18.3 68.8998C18.3 66.1665 18.3 63.4332 18.3 60.6998C18.3 57.6998 19.5 56.2998 22.6 55.8998C32.5 54.3998 42.4 55.3998 52.2 55.1998C57.7 54.9998 63.2 55.1 68.7 55.1Z" fill="#FBFCFB"/>
<path d="M117.2 78.3998C117.9 87.2998 117.9 87.3 109.7 87.3C80.4999 87.3 51.2999 87.4 22.1999 87.3C20.8999 87.3 18.7999 88.0999 18.4999 86.6999C17.9999 84.1999 18.2999 81.4998 18.4999 78.8998C18.5999 78.0998 19.2999 78.8998 19.7999 78.8998C24.6999 79.7998 28.6999 78.5 32.3999 74.8C37.1999 70.1 38.8999 70.4 43.6999 75.1C49.6999 81 55.6999 81.0998 61.9999 75.3998C67.5999 70.2998 69.2999 70.2998 74.5999 75.3998C80.4999 81.0998 86.1999 81.1999 92.4999 75.4999C98.5999 70.0999 98.8999 70.1 105.1 75.3C108.6 78.3 112.8 78.9998 117.2 78.3998Z" fill="#FCFCFC"/>
<path d="M65.4999 40.3999C65.4999 38.1999 65.4999 36 65.4999 33.8C65.3999 32.5 65.1999 31.1999 67.3999 31.1999C69.3999 31.0999 69.5999 32.0001 69.5999 33.6001C69.4999 38.3001 69.4999 43.0001 69.5999 47.6001C69.5999 49.1001 69.6999 50.3 67.5999 50.3C65.4999 50.3 65.3999 49.4 65.3999 47.8C65.4999 45.4 65.4999 42.8999 65.4999 40.3999Z" fill="#F8F9F8"/>
<path d="M42.3999 40.8C42.3999 43.1 42.2999 45.4 42.3999 47.7C42.3999 49.2 42.4999 50.4 40.3999 50.3C38.5999 50.2 38.3999 49.3999 38.3999 47.8999C38.4999 43.1999 38.4999 38.4001 38.3999 33.6001C38.3999 31.7001 39.0999 31.3 40.7999 31.2C42.9999 31.2 42.2999 32.7 42.2999 33.8C42.3999 36.1 42.3999 38.4 42.3999 40.8Z" fill="#EFEFEF"/>
<path d="M93.4002 40.3001C93.4002 38.0001 93.4001 35.6001 93.3001 33.3001C93.3001 32.1001 93.1002 31.1 94.9002 31.2C96.2002 31.3 97.2001 31.2002 97.2001 33.1002C97.0668 38.1668 97.0668 43.2335 97.2001 48.3001C97.2001 49.8001 96.8002 50.2 95.4002 50.2C93.7002 50.3 93.3002 49.7002 93.4002 48.1002C93.5002 45.5002 93.4002 42.9001 93.4002 40.3001Z" fill="#FDFDFD"/>
<path d="M67.7 7C69.1 9.3 70.4 10.9 71.1 12.8C71.7 14.6 71.8001 16.6 69.9001 18C68.4001 19 66.9001 19.1 65.4001 17.7C63.6001 16.1 63.2 14.2 64.2 12.2C65.1 10.6 66.3 9.1 67.7 7Z" fill="#FAFAFA"/>
<path d="M40.3 8.1001C44.2 12.3001 45.0999 15.7001 42.8999 17.6001C41.0999 19.1001 39.1999 19.4001 37.3999 17.6001C35.2999 15.4001 36.3 12.1001 40.3 8.1001Z" fill="#FAFAFA"/>
<path d="M95.5 8.1001C97.2 9.6001 98.6 11.8 99.1 14.2C99.5 16.7 97.8 18.5 95.5 18.7C93.3 18.9 91.7 17.3 91.1 15.2C90.7 13.8 93.9 8.3001 95.5 8.1001Z" fill="#F8F9F8"/>
</svg>
