<svg width="133" height="129" viewBox="0 0 133 129" fill="none" xmlns="http://www.w3.org/2000/svg">
<path d="M43.1 20.1C37.9 24.8 36.5 28.7 38.6 33.2C41.1 38.7 46.6 42 52.4 41.4001C57 41 62.5 35.9 63.6 31.2C64.9 25.5 59 16.6 53.3 15.6C52.8 15.5 52.2 15.3 51.7 15.2C50.2 14.9 48.3 14.8 48.4 12.9001C48.6 11.1 50.4001 10.8 52.0001 10.9001C54.3001 11.0001 55.5 9.90005 56.6 7.90005C60.3 1.50005 66.1001 -0.79995 73.3 0.90005C88.6001 4.50005 101.4 13 113.8 22.2C116.1 23.9 118.4 25.7 120.6 27.5C128.2 33.5 132.3 41 132 51.2C131.5 67.5 131.8 83.9 131.8 100.2C131.8 105.7 130.4 107.3 124.9 108.3C95.1 113.8 65.3 119.4 35.4 124.6C26.4 126.2 17.5 128.4 8.40003 128.9C3.00003 129.2 1.30001 127.4 1.20001 121.9C1.00001 103.7 1.40006 85.4 0.500062 67.1C0.400062 65.3 1.30001 63.9 2.20001 62.6C10.6 51.5 20.7 41.9 30.9 32.6C32 31.7 32.8 30.9001 32.8 29.3001C32.8 24.8001 34.5 20.8 37.9 17.7C39.7 16.2 39.5 15.4 37.7 14.1C33.7 11.1 29.2 9.30003 24.3 8.50003C23.1 8.20003 21.5001 8.50007 21.5001 6.80007C21.5001 5.30007 23 4.60007 24.4 4.30007C26.6 4.00007 28.7 4.4 30.8 5.1C40 7.9 47.1 13.0001 49.7 22.8001C50.1 24.3001 51.5001 26.5001 49.0001 27.3001C46.8001 28.0001 45.3 26.8 44.9 24.1C44.7 22.8 44.5 21.1 43.1 20.1Z" fill="#000103"/>
<path d="M7.3999 64.2C15.3999 54.4 23.1999 45.8 32.0999 38.1C33.7999 36.6 34.6999 36.4 35.9999 38.5C40.2999 45.5 46.9999 47.7 54.3999 46.1C61.7999 44.5 66.8999 39.4 68.4999 31.7C69.6999 25.7 65.8999 21.2 63.2999 16.4C62.2999 14.5 58.9999 13.7 60.6999 10.7C62.9999 6.79997 67.2999 4.60004 70.9999 5.40004C76.7999 6.70004 82.0999 8.90002 87.2999 11.5C99.3999 17.5 110.3 25.1001 120.2 34.3001C122.2 36.2001 123.8 38.4 125.3 41.1C86.0999 48.8 47.1999 56.4 7.3999 64.2Z" fill="#FBFBFB"/>
<path d="M126.9 84.6C126.9 90 126.8 95.2 126.9 100.4C126.9 102.3 126.2 103 124.3 103.4C99.4334 107.733 74.5334 112.133 49.6 116.6C36.7 118.9 23.7 121.4 10.7 123.8C7.80001 124.4 5.70004 124.1 6.10004 120.1C6.40004 116.6 6.20006 113 6.00006 109.4C5.90006 107.5 6.40002 106.9 8.40002 106.6C24.3334 103.867 40.2667 101 56.2 98C75.8 94.4 95.4 90.6 115.1 86.8C118.9 86.1 122.8 85.4 126.9 84.6Z" fill="#FBFCFC"/>
<path d="M6.10001 78.1999C6.10001 69.2999 6.20002 69.5 15.3 67.8C38.2 63.4 61.2 58.9 84.1 54.4C97.3 51.8 110.5 49.1 123.7 46.4C126.1 45.9 127.2 46.3999 126.9 49.1999C126.6 52.4999 127.8 56.2 126.6 59C125.3 62.3 121.2 60 118.3 60.9C113.7 62.3 109.8 64.6 106.2 67.5C100.8 71.9 94.9 73.4999 88.4 70.5999C80 66.9999 72.5 68.7999 65.3 73.6999C64.2 74.3999 63.1 75.2999 62 76C57 79.2999 51.7 80.5999 46 78.5C37.4 75.2 29.8 76.9 22.6 82.4C19 85.3 14.9 87.4999 10 87.6999C7.10003 87.7999 5.60003 87.2999 6.00003 84C6.30003 82.0999 6.10001 80.0999 6.10001 78.1999Z" fill="#FCFCFC"/>
<path d="M126.9 72.4C126.8 79.8 126.8 79.7 119.9 81C83.9666 87.6667 48.0332 94.3 12.0999 100.9C11.6999 101 11.2999 101.1 10.8999 101.2C6.0999 102.4 6.09991 102.4 6.09991 97.7C6.09991 97.5 6.09991 97.4 6.09991 97.2C5.19991 93 6.39992 91.1001 11.2999 91.8001C16.4999 92.5001 20.9999 89.8 24.9999 86.7C30.8999 82.1 36.9999 80.5001 44.3999 83.3001C51.0999 85.9001 57.7999 84.3001 63.9999 80.8001C66.1333 79.6001 68.1999 78.3 70.1999 76.9C74.8999 73.7 79.5999 72.9 85.1999 75.1C94.8999 79.1 103.8 76.9 111.8 70.2C115.1 67.4 118.7 65.5001 123.2 65.3001C126.4 65.1001 127.4 66.1 126.9 69.1C126.7 70.2 126.9 71.3 126.9 72.4Z" fill="#FCFCFC"/>
</svg>
