<svg width="147" height="90" viewBox="0 0 147 90" fill="none" xmlns="http://www.w3.org/2000/svg">
<path d="M46.5 89.3001C35.9 89.6001 24.7 88.6 14.3 83.4C2.99999 77.8 -1.40002 67.2002 2.09998 55.1002C6.09998 40.6002 16.7 31.3001 28.1 23.0001C44.4 11.2001 63 5.10017 82.7 2.10017C97 -0.0998327 111 -0.399881 125 3.80012C131.6 5.80012 137.7 8.90002 141.9 14.7C147.9 22.9 146.8 31.6 142.7 40.2C136.4 53 125.8 61.6001 114 68.8001C96.9 79.2001 78.2 85.4 58.4 88.2C54.7 88.7 51 88.6001 46.5 89.3001Z" fill="#BA9660"/>
<path d="M96.3 5.60007C108 5.00007 118.6 6.09992 128.5 10.6999C141.4 16.6999 144.4 27.4999 137.1 40.1999C132 48.9999 124.9 55.7999 116.6 61.1999C91.9 77.2999 64.9 85.5 35.3 83.8C29.8 83.5 24.4 81.9 19.1 80C6.60002 75.5 3.70003 64.0001 7.80003 53.1001C10.3 46.6001 14.4 41.3 19.2 36.3C21.3 34 23.7 33.3001 26.9 33.6001C40.9 34.8001 53.5 38.9999 63.3 49.6999C64.4 50.8999 65.8 52.9 67.7 51C69.6 49.1 68.1 47.4 66.7 46C58.4 37 47.8 31.9999 36 29.3999C34.1 28.9999 32.1 28.6001 29.5 28.1001C34.5 23.7001 39.8 20.9001 45.1 18.1001C51.1 15.0001 56.9 18.1999 62.4 19.8999C73.7 23.2999 83.7 29.1001 91.5 38.1001C92.8 39.6001 94.2 41.4999 96.2 39.6999C98.4 37.7999 96.3 35.9 95.1 34.5C86.8 25.2 76.4 19.1999 64.7 15.3999C62.9 14.7999 61.2 14.0999 59.2 13.3999C67 10.4999 74.6 7.79992 82.7 6.69992C84.4 6.39992 85.8 6.39992 87.3 7.19992C98.5 12.5999 108.7 19.1999 116.4 29.1999C117.4 30.4999 118.6 33.1999 120.9 31.1999C123.2 29.3999 121.4 27.3999 120.2 25.8999C114.2 18.5999 107.1 12.6001 99.2 7.60007C98.4 7.10007 97.7 6.60007 96.3 5.60007Z" fill="#FCFCFC"/>
</svg>
