<svg width="116" height="116" viewBox="0 0 116 116" fill="none" xmlns="http://www.w3.org/2000/svg">
<path d="M115.3 18.1001C115.9 21.3001 112.2 24.4 112.1 27.8C112 31 115.4 33.9 115.3 38C115.2 42 112.4 45.2999 112.3 48.6999C112.1 51.9999 115.3 55.2999 115.3 59.3999C115.3 63.2999 111.7 66.5 112.3 69.5C112.9 72.7 115.2 75.6999 115.3 79.3999C115.4 83.3999 112.4 86.4001 112.3 89.6001C112.2 92.7001 114.9 95.6999 115.3 99.3999C116.5 111.7 102.7 120 91.3001 113.4C89.1001 112.2 87.8 112.3 85.7 113.6C80.8 116.6 75.5001 116.6 70.6001 113.5C68.6001 112.3 67.3 112.3 65.2 113.6C59.8 116.8 54.3 116.7 49.2 112.8C48 111.8 47.4 111.8 46.2 112.6C40.3 116.8 34.2 116.9 28.4 112.5C26.6 111.1 26.0001 112.6 25.1001 113.1C14.7001 119.5 2.50003 114 0.700031 101.9C0.200031 98.1999 1.10003 94.5999 3.20003 91.3999C4.10003 89.8999 4.40007 89.2 3.30007 87.3C0.200068 81.9 -0.199944 76.1 3.60006 70.8C4.60006 69.4 4.20008 68.7999 3.50008 67.6999C8.01086e-05 61.7999 -0.199969 55.9001 3.70003 50.1001C4.50003 48.9001 4.20006 48.3 3.60006 47.3C-0.0999444 41.3 -0.0999444 35.1999 3.60006 29.1999C4.30006 27.9999 4.50006 27.1999 3.60006 25.6999C-0.699944 19.2999 -0.0999689 11.4001 4.70003 6.10008C9.30003 1.00008 17.2 -0.40002 23.9 2.99998C25.9 3.99998 27.3001 4.20008 29.5001 3.10008C34.8001 0.400078 40.3001 0.59998 45.5001 3.49998C46.7001 4.19998 47.5001 4.89988 49.1001 3.89988C54.3001 0.299883 59.9 1.00003 65.4 3.30003C66.8 3.90003 67.7 4.59988 69.4 3.39988C74.9 -0.500117 80.7001 -0.000117302 86.3001 3.39988C88.0001 4.39988 89.1001 4.49988 90.8001 3.39988C96.3001 -0.100117 102.1 7.82013e-05 107.8 3.10008C113.2 6.20008 115.2 11.1001 115.3 18.1001Z" fill="#000103"/>
<path d="M110.3 17.4C110.5 20.3 109.6 23.1002 107 25.1002C105 26.7002 104.8 28.1002 106.8 30.1002C111.9 35.2002 111.8 41.7 106.8 46.7C105.1 48.5 104.9 49.3002 107 51.1002C111.8 55.3002 111.8 62.8001 107 67.0001C104.8 68.8001 105.2 69.7001 106.8 71.5001C112.1 76.8001 111.9 83.0002 106.3 88.1002C103.6 90.6002 106.4 91.4001 107.4 92.5001C112.9 98.2001 111 107.9 103.6 110.2C98.8 111.8 94.4 110.8 91.1 106.7C89.3 104.5 88.2 104.6 86.3 106.7C81.3 112.4 75.7 112.5 70.6 106.8C68.5 104.4 67.4 104.9 65.6 107C61.2 112.1 55.1999 112.4 50.6999 107.6C48.2999 105 47 104.5 44.4 107.5C40.3 112.3 34 112 30 107C28.1 104.7 27.1 104.5 25 106.9C21.4 111 16.1 111.8 11.6 109.8C7.29997 107.8 4.99996 103.7 5.39996 98.5001C5.59996 95.3001 7.19994 93 9.69994 91.4C11.8999 89.9 12.7 89.1002 9.89996 87.1002C4.29996 83.4002 4.09998 76.2 9.29998 71.7C11.9 69.5 12.5 68.5002 9.29998 66.1002C4.19998 62.3002 4.09996 56.1002 8.89996 51.6002C11.2 49.3002 12.9 48.2002 8.79998 45.6002C3.89998 42.6002 4.29994 34.6001 9.19994 30.3001C11.7999 27.9001 12.9 26.8001 8.99999 24.5001C5.09999 22.2001 4.49999 15.9001 6.99999 11.3001C9.49999 6.70012 15.6 3.90012 19.9 6.80012C24.9 10.0001 28.4 10.3001 33.4 6.80012C37.5 3.90012 41.8 6.50002 45.1 9.70002C46.7 11.3 47.5999 11.3 49.1999 9.70002C53.8999 5.20002 60.3 5.09997 65.4 9.39997C67.4 11.1 68.4999 10.9 70.1999 9.20002C74.8999 4.50002 81.1 4.49997 86.1 9.39997C87.9 11.3 88.9 11.5001 90.8 9.30012C94 5.60012 99.5 4.60016 103.9 6.60016C108.3 8.70016 110.4 12.2 110.3 17.4Z" fill="#FBFBFB"/>
<path d="M84.6999 54.5C86.4999 54.9 87.9999 55.8 87.8999 58C87.8999 59.9 86.5999 60.9001 84.7999 61.1001C82.7999 61.3001 81.6999 59.8 81.4999 58.2C81.3999 56.3 82.5999 54.9 84.6999 54.5Z" fill="#04060C"/>
<path d="M85 28.8999C86.7 29.2999 87.8 30.5 87.9 32.3C87.9 34.3 86.7 35.5 84.6 35.5C82.6 35.6 81.6 34.0999 81.6 32.3999C81.6 30.4999 83 29.2999 85 28.8999Z" fill="#08090F"/>
<path d="M57.6999 80.5C59.3999 80.8 60.7999 81.5 60.7999 83.5C60.7999 85.5 60.1999 86.7 57.9999 86.7C56.0999 86.7 54.9999 85.8 54.8999 83.8C54.6999 81.7 55.8999 80.9 57.6999 80.5Z" fill="#05080C"/>
<path d="M88 83.7C87.8 85.4 87 86.6 85 86.8C82.8 87 81.6 85.5 81.5 83.7C81.5 82 82.8 80.7001 84.7 80.6001C86.6 80.6001 87.7 81.7 88 83.7Z" fill="#020309"/>
<path d="M57.8999 54.5C59.4999 55.2 60.8999 56.0001 60.7999 58.1001C60.6999 60.0001 59.5999 61.2001 57.6999 61.1001C55.7999 61.0001 54.7999 59.8 54.8999 57.8C54.8999 55.7 56.2999 55.1 57.8999 54.5Z" fill="#05070C"/>
<path d="M31.0999 86.6999C29.4999 86.5999 28.4 85.6 28.5 83.6C28.5 81.6 29.6 80.5 31.5 80.6C33.3 80.7 34.2999 81.7 34.2999 83.8C34.2999 85.8 33.3999 86.7999 31.0999 86.6999Z" fill="#020408"/>
<path d="M34.2999 57.7C34.2999 59.9 33.1999 61.0001 31.3999 61.1001C29.4999 61.2001 28.4999 60 28.3999 58C28.3999 55.9 29.7999 54.8 31.2999 54.7C32.8999 54.7 34.3999 55.8 34.2999 57.7Z" fill="#020509"/>
<path d="M60.7 33.2C60.5 34.2 59.6 35.5 57.7 35.5C55.8 35.5 54.8 34.2 54.8 32.3C54.9 30.3 56.2 29.1001 57.8 29.1001C59.4 29.2001 60.8 30.3 60.7 33.2Z" fill="#010306"/>
<path d="M31.5001 35.6C29.5001 35.4 28.6001 34.3998 28.5001 32.3998C28.3001 30.2998 29.7001 29.2999 31.3001 29.1999C33.1001 29.0999 34.3001 30.3 34.3001 32.3C34.3001 34.3 33.1001 35.2 31.5001 35.6Z" fill="#04050A"/>
</svg>
