<svg width="116" height="135" viewBox="0 0 116 135" fill="none" xmlns="http://www.w3.org/2000/svg">
<path d="M61.2 75.3001C64.2 80.9001 69.4 82.1 73.7 84.4C81.3 88.5 81.4 88.4001 85.3 80.8001C88.2 75.2001 91 69.6 94 64.2C95 62.4 94.6 61.8 92.9 61C86.5 57.8667 80.1334 54.6667 73.8 51.4C72.3 50.6 71.2 50.2 70.3 52.1C67.4 58.2 64.3 64.2 61.4 70C58.4 64.3 58.5 64.4 61.8 57.6C63.4 54.4 67.2 50.9 66.1 48C65.2 45.5 60.4 44.4 57.4 42.7C53.8 40.7 50.2 38.8001 46.6 36.8001C45.3 36.1001 44.1 35.6 42.4 36.1C40.1 36.7 39.2 35.6001 40.1 33.3001C44.3 22.7001 50.1 12.9 55.8 3.09999C57.6 -0.100014 62 -0.600038 66.5 1.69996C74 5.39996 81.4 9.50003 88.8 13.4C95.9 17 102.9 20.5 109.9 24.1C115.8 27.1 117.1 30.4001 114 36.3001C103.4 57.0001 92.5 77.6 81.8 98.2C80.1 101.3 78.2 104.3 76.8 107.5C75.8 109.6 74.2 110.9 72.4 110.1C70.9 109.4 71.6 107.2 72.3 105.7C74.1 102.2 75.8 98.6001 77.8 95.3001C78.9 93.4001 78.9 92.6 76.8 91.7C73.6 90.3 70.5 88.6 67.4 87.1C60.7 83.7 60.7 83.7001 61.2 75.3001Z" fill="#BA9660"/>
<path d="M74 113.7C71.3 119 68.7 124.1 65.9 129.1C62.8 134.8 58.7 136.4 52.9 133.5C36.5 125.3 20.2 117 3.99999 108.5C0.299986 106.6 -0.500014 101.8 1.99999 96.9C8.29999 84.4 15 72 22 59.7C25.6 53.5 29 47.2 32.5 40.9C34.7 36.8 35.9 37.1 39.9 38.7C45.9 41 46.8 45.3 46.2 50.7C46 52.6 46.2 54.6 46.1 56.5C46 59.3 47.1 61.3 49.6 62.4C56.7 65.7 60.7 75 57.4 82.5C56.1 85.3 57.2 86.7 60.3 87.2C68 88.6 71.4 93.7001 70.1 101.3C69.8 103.6 69.3 105.9 69.2 108.2C69 111.4 70 113.9 74 113.7Z" fill="#BA9660"/>
<path d="M88.6 18.8C89.1 19.1 89.3 19.3 89.5 19.4C96 22.7 102.6 26 109.1 29.3C110.6 30.2 110.9 31.4 110 33.1C106 40.8 102 48.5 98.3 56.3C97.4 58 96.8 57.3 95.8 56.8C89.2667 53.4 82.7 50.0333 76.1 46.7C74.6 46 73.9 45.6 74.9 43.8C79.3 36 83.3 28.1 87.5 20.2C87.8 19.7 88.3 19.2 88.6 18.8Z" fill="#FBFBFB"/>
<path d="M83.8 16.4C79 25.4 74.3 34.3 69.5 43.4C62.5 39.7 55.4 35.7999 48.1 32.0999C46.4 31.1999 46.4 30.7999 47.2 29.1999C51.1 22.1999 54.9 15.1999 58.5 8.09993C60 5.19993 61.8 4.9 64.5 6.3C70.9 9.7 77.4 13.1 83.8 16.4Z" fill="#FBFBFB"/>
<path d="M41.2 54.1999C39.9 60.8999 42.9001 65.4999 49.3001 68.4999C53.1001 70.1999 54.7 76.5 53.4 82.4C52 88.6 52.6001 89.6 58.3001 91.4C65.5001 93.7 67.6 97.7999 65.4 105.2C64.3 108.7 63.3001 112.1 66.3001 115.2C66.5001 115.4 66.7 115.6 66.7 115.9C67 117.8 60.2 128.6 58.4 129.4C56.9 130.1 55.7 129.4 54.6 128.8C39.1 120.9 23.7 112.9 8.20005 105C5.90005 103.8 5.00005 102.5 6.30005 99.8C15.5001 81.1 26.3 63.2 36.1 44.8C36.4 44 36.7 43.0999 37.7 43.5999C39.3 44.2999 41.1 44.9999 41.2 47.1999C41.3 49.3999 41.2 51.5999 41.2 54.1999Z" fill="#FCFCFB"/>
</svg>
