<svg width="115" height="134" viewBox="0 0 115 134" fill="none" xmlns="http://www.w3.org/2000/svg">
<path d="M57.0001 133.1C48.5334 133.1 40.0335 133.1 31.5001 133.1C30.0001 133.1 28.3001 133.5 28.1001 131.1C27.9001 129.3 28.9001 128.5 30.6001 128C33.5001 127.4 36.4001 126.7 39.2001 125.8C44.5001 124 46.7001 119.8 47.4001 114.6C47.8001 112 45.3001 112.9 44.4001 112.8C38.1001 111.9 32.0001 110 26.1001 107.6C13.1001 102.2 3.80007 93.4999 1.20007 79.0999C0.700067 75.8999 -0.699957 71.9 4.80004 71.3C6.20004 71.1 5.40004 70.1999 5.30004 69.4999C3.70004 58.9999 7.20004 50.6 16.3 46.8C18.2 46 17.5001 45 17.4001 43.9C17.0001 37.7 17.1001 31.6999 21.9001 26.6999C25.9001 22.4999 30.6001 20.2 36.5001 20.8C38.9001 21 39.8 20.7999 39.8 17.9999C39.8 8.29995 47.4001 0.699899 56.5001 0.199899C67.7001 -0.300101 76.5001 8.49997 76.7001 17.9C76.8001 20.5 77.6001 20.8 80.0001 20.9C91.9001 21.1 100.2 31.1 98.5001 42.9C98.1001 45.3 98.1001 46.8999 100.9 48.1999C108.4 51.6999 112.2 60.4999 110.3 68.5999C109.8 70.4999 109.7 71.1999 112 71.4999C114.2 71.7999 114.9 73.6 114.8 75.8C114.5 87.4 108.6 95.9 99.4001 102.3C91.3001 108 82.1 111.3 72.3 112.5C68.9 112.9 68.9001 114.3 69.6001 116.9C71.4001 122.9 75.3001 126.3 81.4001 127.5C82.3001 127.6 83.2001 128 84.1001 128.1C85.9001 128.3 86.9 129 86.8 131C86.6 133.3 84.9001 133 83.5001 133C74.7001 133 65.8001 133 57.0001 133C57.0001 133 57.0001 133.033 57.0001 133.1Z" fill="#000103"/>
<path d="M58.2 77.3C74.4 77.3 90.5999 77.3 106.8 77.3C109.1 77.3 110.1 77.2 109.4 80.3C106.4 92.5 97.5 99.1 86.7 103.2C65.1 111.4 43.6 110.9 22.7 100.3C14.2 96 9.10002 89.1 6.50002 80C5.70002 77.2 6.39997 77.1 8.69997 77.1C24.1 77.2 39.5 77.3 54.9 77.3C55.9667 77.3 57.0666 77.3 58.2 77.3Z" fill="#FBFBFB"/>
<path d="M58.1999 5.30007C67.9999 5.60007 71.7 13.2 71.9 20.5C71.9 22.3 70.6999 22.8 69.5999 23.4C66.7999 25 64.5999 27.2 63.0999 30C60.7999 34 55.6999 34.6 52.5999 30.9C50.4999 28.4 48.4999 25.9 46.1999 23.5C43.3999 20.8 44.3999 14.2 47.7999 10C50.3999 6.90002 53.9999 5.20007 58.1999 5.30007Z" fill="#FBFBFB"/>
<path d="M79.5999 25.9C86.1999 25.9 90.6999 29.2 92.7999 35.5C93.6999 37.9 93.4 40.3 92.9 42.7C92.3 46.1 89.5999 45.4 87.2999 45.9C83.1999 46.9 79.7999 49.2 77.1999 52.4C76.4999 53.2 76.3999 54.2 74.7999 53.4C66.8999 50 63.3999 39.8 67.6999 32.3C70.1999 28 74.0999 25.9 79.5999 25.9Z" fill="#FBFBFB"/>
<path d="M41.7999 54.0999C36.7999 49.4999 31.9 45.4999 25 45.5999C22.5 45.5999 22.7 43.3999 22.4 41.9999C21.2 34.3999 26.2999 26.9 33.2999 25.9C41.5999 24.7 48.5 29.8999 49.5 38.1999C50.1 42.4999 50.9 46.9 45.6 49.4C43.9 50.2 42.5999 52.0999 41.7999 54.0999Z" fill="#FBFCFB"/>
<path d="M24.0999 72.4001C21.2999 72.4001 18.2999 72.1 15.4999 72.5C11.7999 73 10.5999 70.7001 10.0999 67.9001C9.19992 62.0001 10.6999 56.7 15.5999 53C20.0999 49.6 24.8999 48.9 30.0999 51.6C35.2999 54.4 37.6999 58.9 38.0999 64.7C38.0999 65.4 38.0999 66.1001 38.0999 66.8001C37.8999 72.1001 37.4999 72.6 32.2999 72.6C29.5999 72.6 26.8999 72.6 24.0999 72.6C24.0999 72.5333 24.0999 72.4667 24.0999 72.4001Z" fill="#FBFBFB"/>
<path d="M57.6001 72.5999C55.4001 72.5999 53.2001 72.1999 51.1001 72.5999C46.4001 73.5999 44.5001 71.2999 44.1001 67.1999C43.6001 61.2999 45.2001 56 50.1001 52.4C54.2001 49.3 58.9001 48.7999 63.6001 51.0999C70.2001 54.1999 73.6 64.9 70.2 71.4C69.4 72.8 68.3001 72.6999 67.1001 72.6999C63.9001 72.5999 60.8001 72.6999 57.6001 72.6999C57.6001 72.6332 57.6001 72.5999 57.6001 72.5999Z" fill="#FBFBFB"/>
<path d="M91.5001 72.7C88.4001 72.7 85.2001 72.6001 82.1001 72.8001C80.5001 72.8001 79.6001 72.4001 78.9001 70.9001C76.2001 65.0001 78.0001 58.0001 83.6001 53.4001C88.0001 49.8001 94.8001 49.7 99.6001 53.2C105 57.3 107.2 64.1001 104.9 69.9001C104.1 71.6001 103.3 72.8001 101 72.5001C97.9001 72.2001 94.7001 72.4001 91.5001 72.4001C91.5001 72.5334 91.5001 72.6333 91.5001 72.7Z" fill="#FBFBFB"/>
<path d="M71.0999 128.1C62.5999 128.1 54.6998 128.1 46.2998 128.1C49.3998 124.2 51.7998 120.4 52.2998 115.6C52.3998 114.3 53.1999 113.1 55.0999 113.4C55.8999 113.5 56.6999 113.5 57.4999 113.4C61.8999 112.6 64.8998 113.5 65.2998 118.9C65.5998 122.5 68.2999 125.1 71.0999 128.1Z" fill="#FBFBFB"/>
<path d="M60.4 42.4C60 43 62.4 45.2 59.5 44.8C58.1 44.7 55.1 46.5 55.4 42.9C55.6 41.4 53.4999 38.7999 57.1999 38.1999C60.5999 37.7999 60.6 39.8 60.4 42.4Z" fill="#FCFCFC"/>
</svg>
