<svg width="125" height="130" viewBox="0 0 125 130" fill="none" xmlns="http://www.w3.org/2000/svg">
<path d="M124.8 65.2C124.8 69.2 124.4 73.2002 124.9 77.1002C125.3 81.4002 123.4 84.1001 120.3 86.5001C102.567 100.1 84.8666 113.667 67.2 127.2C63 130.5 61 130.4 56.7 127.1C39.1 113.5 22.2 99.2002 4.19995 86.1002C1.39995 84.1002 -2.55108e-05 81.5001 0.0999745 77.8001C0.299975 69.1001 0.199974 60.4001 0.0999745 51.8001C0.0999745 48.8001 1.10002 46.5 3.40002 44.7C16.4 34.7 29.4 24.6668 42.4 14.6002C47.3 10.8002 52 6.90017 56.9 3.10017C60.8 -0.0998294 63.1 -0.200025 67 2.89998C85.3 16.9 103.4 31.0001 121.7 45.0001C123.9 46.7001 124.9 48.5 124.8 51.2C124.7 55.8 124.8 60.5 124.8 65.2Z" fill="#000103"/>
<path d="M5.69995 49.0001C18.3 39.4001 30.7999 29.9001 43.2999 20.3001C48.7999 16.1001 54.4 11.9001 59.7 7.30012C61.7999 5.50012 63 5.99997 64.9 7.39997C80.4334 19.4 96 31.4334 111.6 43.5001C114.1 45.4001 116.6 47.2 119.5 49.4C110.1 56.8 100.9 64.1 91.6 71.4C83.4 77.9 75 84.2 66.7 90.7C64.7999 92.1 63.4 93.0001 60.9 91.3001C42.6 78.3001 25 64.5002 7.40002 50.6002C6.80002 50.2002 6.39995 49.7001 5.69995 49.0001Z" fill="#FBFCFC"/>
<path d="M5.09998 70.8C22.4 84.5 39.3 97.7 56.1 111C61.1 114.9 63.2 115.2 68 111.4C81.8 100.6 95.5 89.6 109.1 78.7C112.6 76 115.9 73.2001 119.8 70.1001C119.8 73.4001 119.8 76.5 119.8 79.5C119.8 80.8 118.8 81.3 118 82C100.5 95.4 83.1 108.8 65.7 122.2C63.2999 124 61.5999 124.7 58.7999 122.4C41.5999 108.6 24.5999 94.6 6.79993 81.7C5.49993 80.7 5 79.8 5 78.3C5.1 76.1 5.09998 73.9 5.09998 70.8Z" fill="#FCFCFC"/>
<path d="M119.6 55.8999C120.4 60.7999 119.8 64.4999 115.3 67.8999C98.1999 80.6999 81.6 94.0999 64.9 107.4C63 109 62 109 60.1 107.5C42.3 93.7 24.8 79.3 6.59998 66C5.39998 65.2 5 64.4 5 63C5.1 60.7 5.09998 58.3999 5.09998 55.3999C12.1 60.7999 18.7 66.0001 25.4 71.1001C36.3334 79.3001 47.2999 87.4668 58.2999 95.6001C61.8999 98.3001 65 98.2001 68.7 95.3C85.2 82.6 101.8 70.0999 117.9 56.8999C118.4 56.4999 118.9 56.2999 119.6 55.8999Z" fill="#FCFDFC"/>
<path d="M59.1999 25.6C64.5999 24.4 67.8999 27.7 71.2999 31.1C73.0999 32.9 73.2 35.1 72.5 37.1C71.8 39.4 69.7999 41.1 67.1999 41.1C62.3999 41 57.8 40.4999 53.9 36.9999C51.3 34.4999 50.6999 31.4998 51.5999 28.3998C52.6999 24.2998 56.3999 25.9 59.1999 25.6Z" fill="#010205"/>
<path d="M58.6999 73.3C55.1999 73.6 51.9999 73.9 50.7999 69.8C49.5999 65.6 51.6 63.0999 54.9 60.8999C57.2 59.2999 59.3 57.2999 62.6 57.6999C65.6 58.1999 69.9999 56.3 70.2999 61.8C70.7999 68.3 67.8 72.5999 62.5 73.1999C61.2 73.3999 59.7999 73.3 58.6999 73.3Z" fill="#010104"/>
<path d="M78.9 42.8999C80.2 42.8999 81.4 43.0999 82.6 42.8999C87.8 41.8999 90.6 45.4 90.1 50.8C89.9 54.2001 88.5 56.2 84.9 56.2C81.6 56.2 78.3 56.1 75 56.2C72.2 56.3 70.5 54.3 69.9 52.3C69 49.7 68.6 46.6 70.3 44C70.9 43 72 42.7999 73.2 42.8999C75.1 42.9999 77 42.8999 78.9 42.8999Z" fill="#000103"/>
<path d="M47.6001 42.8998C48.2668 42.8998 48.9334 42.8998 49.6001 42.8998C56.9001 42.8998 57.0001 42.8998 57.1001 47.3998C57.2001 54.8998 55.8001 56.2 49.2001 56.8C44.6001 57.2 41.0001 56.1999 38.1001 52.4999C36.8001 50.7999 35.8001 48.9998 36.8001 46.8998C37.9001 44.6998 39.2001 42.6998 42.3001 42.8998C44.0001 42.9998 45.8001 42.8998 47.6001 42.8998Z" fill="#000104"/>
<path d="M63.5999 36.3C63.3999 36.3 63.1999 36.3 63.0999 36.3C59.8999 36.4 57.7998 34.6 56.1998 32.1C55.7998 31.5 56.0999 30.5999 56.8999 30.4999C59.7999 30.0999 62.8998 29.2 65.2998 31.8C66.1998 32.9 68.2999 33.5 67.5999 35.3C66.8999 37 64.8999 36 63.5999 36.3Z" fill="#FAFAFA"/>
<path d="M59.0999 68.5001C57.9999 68.2001 56.1999 69.3001 55.5999 67.8001C54.6999 66.0001 56.8 65.5002 57.9 64.6002C59 63.7002 59.9999 62.8002 61.4999 62.6002C63.0999 62.5002 65.3999 60.6002 65.9999 63.6002C66.5999 66.3002 64.5999 67.8001 62.0999 68.5001C61.1999 68.7001 60.1999 68.5001 59.0999 68.5001Z" fill="#F6F6F6"/>
<path d="M80.1 52C79.3 52 78.4 52 77.6 52C75.8 51.8 74 51.4 74 49.1C73.9 46.5 76 47.2 77.5 47.1C79.1667 47.0334 80.8 47.0334 82.4 47.1C84 47.3 85.7 47.9 85.6 49.6C85.5 51.4 84 52.2 82.1 52C81.4 51.9 80.8 52 80.1 52Z" fill="#F2F3F3"/>
<path d="M47.9999 51.8998C46.9999 51.8998 45.9999 52.0998 45.0999 51.8998C43.4999 51.3998 41.7998 50.2998 41.7998 48.6998C41.7998 46.7998 43.9998 47.3998 45.2998 47.1998C46.6998 47.0998 48.0999 47 49.3999 47.1C50.7999 47.3 52.8998 46.1 52.7998 49.1C52.7998 51.7 51.3998 52.2999 49.1998 51.9999C48.7998 51.8999 48.3999 51.9999 47.9999 51.9999C47.9999 51.9999 47.9999 51.9664 47.9999 51.8998Z" fill="#EDEEED"/>
</svg>
