<svg width="34" height="35" viewBox="0 0 34 35" fill="none" xmlns="http://www.w3.org/2000/svg">
  <!-- Rounded square with border -->
  <path fill-rule="evenodd" clip-rule="evenodd" d="M23.5999 0.799805C25.3999 0.899805 26.5998 1.1001 27.6998 1.6001C28.7998 2.0001 29.6999 2.6 30.5999 3.5C31.5999 4.4 32.0999 5.2999 32.5999 6.3999C32.9999 7.4999 33.2999 8.7 33.3999 10.5C33.3999 12.3 33.3999 12.7999 33.3999 17.3999C33.3999 21.8999 33.3999 22.4998 33.3999 24.2998C33.2999 26.0998 32.9999 27.2998 32.5999 28.2998C32.0999 29.3998 31.5999 30.3998 30.5999 31.2998C29.6999 32.1998 28.7998 32.8002 27.6998 33.2002C26.5998 33.6002 25.3999 33.9 23.5999 34C21.8999 34.1 21.2998 34.1001 16.6998 34.1001C12.1998 34.1001 11.5999 34.1 9.8999 34C8.0999 33.9 6.8998 33.6002 5.7998 33.2002C4.6998 32.8002 3.7998 32.1998 2.7998 31.2998C1.8998 30.3998 1.2999 29.3998 0.899902 28.2998C0.499902 27.2998 0.199854 26.0998 0.0998535 24.2998C0.0998535 22.4998 -0.00012207 21.8999 -0.00012207 17.3999C-0.00012207 12.7999 0.0998535 12.3 0.0998535 10.5C0.199854 8.7 0.499902 7.4999 0.899902 6.3999C1.2999 5.2999 1.8998 4.4 2.7998 3.5C3.7998 2.6 4.6998 2.0001 5.7998 1.6001C6.8998 1.1001 8.0999 0.899805 9.8999 0.799805C11.5999 0.699805 12.1998 0.700195 16.6998 0.700195C21.2998 0.700195 21.8999 0.699805 23.5999 0.799805ZM9.99988 3.7998C8.39988 3.8998 7.4999 4.0999 6.8999 4.3999C6.0999 4.6999 5.59988 5.0001 4.99988 5.6001C4.39988 6.2001 3.99983 6.8 3.69983 7.5C3.49983 8.1 3.19985 9.0001 3.09985 10.6001C3.09985 12.4001 2.99988 12.8999 2.99988 17.3999C2.99988 21.7999 3.09985 22.4001 3.09985 24.1001C3.19985 25.8001 3.49983 26.7002 3.69983 27.2002C3.99983 28.0002 4.39988 28.6002 4.99988 29.2002C5.59988 29.7002 6.0999 30.0999 6.8999 30.3999C7.4999 30.5999 8.39988 30.9 9.99988 31C11.7999 31.1 12.2998 31.1001 16.6998 31.1001C21.1998 31.1001 21.6999 31.1 23.4999 31C25.0999 30.9 25.9999 30.5999 26.5999 30.3999C27.3999 30.0999 27.8999 29.7002 28.4999 29.2002C29.0999 28.6002 29.4998 28.0002 29.7998 27.2002C29.9998 26.7002 30.2998 25.8001 30.2998 24.1001C30.3998 22.4001 30.3999 21.7999 30.3999 17.3999C30.3999 12.8999 30.3998 12.4001 30.2998 10.6001C30.2998 9.0001 29.9998 8.1 29.7998 7.5C29.4998 6.8 29.0999 6.2001 28.4999 5.6001C27.8999 5.0001 27.3999 4.6999 26.5999 4.3999C25.9999 4.0999 25.0999 3.8998 23.4999 3.7998C21.6999 3.6998 21.1998 3.7002 16.6998 3.7002C12.2998 3.7002 11.7999 3.6998 9.99988 3.7998Z" fill="#AE8C5B"/>
  <!-- Large circle with border -->
  <path fill-rule="evenodd" clip-rule="evenodd" d="M17.2998 9.3999C17.2998 14.0999 13.4998 18 8.69983 18C3.99983 18 0.199829 14.0999 0.199829 9.3999C0.199829 4.5999 3.99983 0.799805 8.69983 0.799805C13.4998 0.799805 17.2998 4.5999 17.2998 9.3999ZM14.2998 9.3999C14.2998 6.2999 11.7998 3.7998 8.69983 3.7998C5.69983 3.7998 3.19983 6.2999 3.19983 9.3999C3.19983 12.4999 5.69983 15 8.69983 15C11.7998 15 14.2998 12.4999 14.2998 9.3999Z" transform="translate(8.5 8.5) scale(0.9)" fill="#AE8C5B"/>
  <!-- Small filled circle -->
  <path d="M4.69983 2.5C4.69983 3.6 3.79983 4.5 2.69983 4.5C1.59983 4.5 0.699829 3.6 0.699829 2.5C0.699829 1.4 1.59983 0.5 2.69983 0.5C3.79983 0.5 4.69983 1.4 4.69983 2.5Z" transform="translate(24 5)" fill="#AE8C5B"/>
</svg>