<svg version="1.2" xmlns="http://www.w3.org/2000/svg" viewBox="0 0 528 210" width="528" height="210"><style>.a{fill:#fff}</style><path class="a" d="m102.7 66.1q1.4-2.6 2.9-5.2c0.1-0.2 1.3-2 1.2-2.2-4-3.9-8.3-8.4-8.7-14.3 0 0.3-1.3 2.2-1.3 2.1-2.2 4.3-6 8.3-6.5 13.3-0.6 6 4.2 9.8 8.1 13.7-0.2-0.2 3.9-6.8 4.3-7.4z"/><path class="a" d="m331.3 28.3q-0.1 0.1 0 0z"/><path class="a" d="m44.9 77.4q0 0.1 0 0-1 2.8-2 5.6-1.1 2.8-2.1 5.6c-0.1 0.2-0.9 2.3-0.8 2.4 9.7 7 18.3 15.5 25.1 25.1 5.6 8 11 17.1 13.1 26.5q0.5 2.5 0.7 5.1 0.3 1.9 0.4 3.7 0.5-1.3 1-2.6c5-45.8-35.2-71.3-35.4-71.4z"/><path class="a" d="m150.3 133.5c-1.4-6.6-5.3-12.4-10.3-16.9-6.6-6.2-15-10.2-22.5-15.2-7.2-5-14.9-11.6-16.4-20.5-0.5-2.6-0.3-5.3 0.7-7.9q-0.1 0.3-0.4 0.7l0.4-0.7c0 0-6.5 6.5-7.2 14.9q-0.1 1.1 0 2.3 0 0.1 0 0.1c0.5 8.5 8.5 16.2 15.3 20.9 8.8 6.3 18.9 10.7 26.3 18.6 4 4.2 8.9 10.5 6.8 16.7-1.5 4.2-6.6 5.1-10.7 5.3-0.4 0-3.1 0.3-3.3-0.2q-0.3-1-0.7-1.9c-2.8-7.2-7.4-13.8-13.6-18.7-3.6-2.8-7.8-5.1-12.4-5.8-2-0.3-4.9-0.7-6.6 0.6-1.3 1-2 2.8-2.7 4.1q-1.7 3-3.4 6c-0.4 0.7-0.9 1.3-1.1 2.1-0.5 1.9 0.9 4.2 1.8 5.7 1.1 2 2.4 3.8 3.9 5.5 3 3.4 6.7 6.1 10.7 8.2 5.4 2.8 11.7 4.7 18 5.1 2.3 6.6 3.1 13.6 2 20.4q-0.4 2.5-1.2 4.8 0.8-0.9 1.5-1.8 0.7-0.9 1.4-1.9c0.4-0.6 0.3-0.4-0.1 0.2q0.2-0.3 0.4-0.7c2-3.6 3.5-7.2 4.2-11.2 0.5-3.3 0.6-6.8 0.3-10.2 2.2-0.4 4.4-1.1 6.4-2.2 6.5-3.6 11.2-10.1 12.7-17.3q0.1-0.7 0.2-1.4c0.3-2.6 0.2-5.2-0.4-7.7zm-47.1 7.6q-2.2-1.9-4.1-4.3c2.7 0.8 5.2 2.1 7.5 3.6 3.2 2.3 6 5 8.4 8-4.3-1.7-8.3-4.2-11.8-7.3z"/><path class="a" d="m237.9 175.8q-0.1 0.9-0.5 1.8-0.4 0.9-1.2 1.5-0.7 0.5-1.7 0.8-1 0.3-2.2 0.3h-8.6v-17.4h9.3q0.9 0 1.7 0.3 0.8 0.4 1.3 1.1 0.5 0.6 0.8 1.5 0.3 0.7 0.3 1.5 0 1.3-0.7 2.4-0.6 1.1-1.9 1.7 1.6 0.4 2.4 1.6 1 1.1 1 2.9zm-11.3-10.6v5.1h5.2q0.5 0 1-0.2 0.4-0.2 0.7-0.6 0.4-0.2 0.6-0.7 0.2-0.5 0.2-1-0.1-1.2-0.7-1.8-0.7-0.8-1.7-0.8zm8.3 10q0-0.5-0.1-1-0.2-0.5-0.6-0.9-0.3-0.4-0.7-0.6-0.5-0.2-1-0.2h-5.9v5.3h5.7q0.6 0 1-0.2 0.5-0.2 0.9-0.6 0.3-0.3 0.5-0.8 0.2-0.4 0.2-1z"/><path class="a" d="m239.6 180.2l7.2-17.4h2.3l7.3 17.4h-3.1l-1.9-4.7h-6.9l-1.9 4.7zm8.4-14.3l-3 7.5h5.9z"/><path class="a" d="m259.5 180.2v-17.3h2.8v9l8.6-9.1h3l-7.1 7.7 7.5 9.7h-3l-6.1-8.1-2.9 2.8v5.3z"/><path class="a" d="m289.4 177.8v2.4h-12.3v-17.4h12.1v2.4h-9.3v4.9h8.1v2.4h-8.1v5.3z"/><path class="a" d="m293.4 180.2v-17.4h7.8q1.3 0 2.3 0.4 1 0.5 1.7 1.4 0.8 0.8 1.2 1.7 0.4 1.1 0.4 2.2 0 0.9-0.2 1.6-0.3 0.9-0.8 1.6-0.4 0.7-1.1 1.1-0.6 0.5-1.4 0.8l4.3 6.6h-3.2l-4-6.1h-4.1v6.1zm2.8-8.5h5q0.6 0 1.1-0.2 0.5-0.3 0.9-0.8 0.3-0.4 0.5-1 0.2-0.5 0.2-1.2 0-0.7-0.2-1.3-0.3-0.6-0.7-1-0.3-0.4-0.9-0.7-0.5-0.3-1-0.3h-4.8c0 0 0 6.5-0.1 6.5z"/><path class="a" d="m322 166.9q-0.3-0.3-0.8-0.6-0.5-0.2-1.1-0.5-0.6-0.3-1.4-0.5-0.8-0.2-1.7-0.2-1.7 0-2.5 0.7-0.9 0.6-0.9 1.7 0 0.7 0.3 1.1 0.3 0.4 0.8 0.7 0.6 0.2 1.4 0.5 0.9 0.2 2 0.5 1.3 0.4 2.4 0.7 1.1 0.4 1.8 1 0.8 0.6 1.2 1.3 0.5 0.8 0.5 2.1 0 1.3-0.5 2.3-0.6 0.9-1.5 1.5-0.9 0.6-2.1 0.9-1.2 0.3-2.5 0.3-2.1 0-4-0.7-1.9-0.6-3.4-1.7l1.3-2.3q0.3 0.2 0.9 0.6 0.6 0.4 1.4 0.8 0.9 0.3 1.9 0.6 0.9 0.2 2 0.2 1.6 0 2.5-0.6 0.9-0.6 0.9-1.6 0-0.7-0.3-1.2-0.3-0.4-1-0.8-0.6-0.3-1.5-0.6-0.9-0.2-2.1-0.5-1.3-0.3-2.3-0.7-1-0.4-1.7-0.9-0.6-0.6-1-1.3-0.3-0.7-0.3-1.7 0-1.4 0.5-2.3 0.5-1 1.3-1.7 0.9-0.7 2.1-1.1 1.2-0.2 2.6-0.2 1.8 0 3.4 0.5 1.5 0.6 2.6 1.4z"/><path class="a" d="m346.8 180.2l-1.6-1.7q-1.1 0.9-2.5 1.4-1.3 0.5-2.7 0.5-1.3 0-2.4-0.4-1.1-0.4-1.9-1-0.8-0.7-1.2-1.6-0.4-1-0.4-1.9 0-0.9 0.2-1.6 0.3-0.7 0.8-1.3 0.4-0.6 1-1.1 0.6-0.5 1.3-1-0.6-0.7-1-1.1-0.4-0.5-0.6-1-0.3-0.4-0.4-0.9-0.1-0.4-0.1-0.9 0-0.8 0.4-1.6 0.3-0.8 1-1.3 0.6-0.6 1.5-0.8 0.9-0.3 1.9-0.3 0.9 0 1.7 0.3 0.9 0.1 1.5 0.6 0.6 0.5 1 1.2 0.3 0.7 0.4 1.5 0 1.5-1 2.6-1 1.1-2.4 2l4 4.1q0.4-0.9 0.6-1.9 0.3-0.9 0.3-2h2.3q0 1.6-0.4 3-0.4 1.5-1.2 2.5l3.6 3.7zm-6.6-1.9q1 0 1.9-0.3 0.8-0.4 1.6-1l-4.7-4.8q-1 0.7-1.7 1.5-0.6 0.8-0.6 1.8 0 0.6 0.3 1.1 0.3 0.5 0.8 0.9 0.4 0.4 1.1 0.6 0.6 0.2 1.3 0.2zm-2.4-11.8q0 0.2 0.1 0.5 0.1 0.2 0.3 0.5 0.1 0.3 0.5 0.7 0.3 0.4 0.8 0.9 1.2-0.7 1.9-1.4 0.7-0.6 0.7-1.4 0-0.7-0.6-1.2-0.6-0.5-1.4-0.5-1 0-1.6 0.6-0.7 0.6-0.7 1.3z"/><path class="a" d="m371.4 166.9q-0.2-0.3-0.7-0.6-0.5-0.2-1.1-0.5-0.7-0.3-1.5-0.5-0.7-0.2-1.6-0.2-1.7 0-2.6 0.7-0.8 0.6-0.8 1.7 0 0.7 0.3 1.1 0.2 0.4 0.8 0.7 0.5 0.2 1.4 0.5 0.8 0.2 1.9 0.5 1.3 0.4 2.4 0.7 1.1 0.4 1.9 1 0.8 0.6 1.2 1.3 0.5 0.8 0.4 2.1 0 1.3-0.5 2.3-0.5 0.9-1.4 1.5-0.9 0.6-2.1 0.9-1.2 0.3-2.5 0.3-2.1 0-4-0.7-1.9-0.6-3.5-1.7l1.3-2.3q0.4 0.2 1 0.6 0.6 0.4 1.4 0.8 0.8 0.3 1.8 0.6 1 0.2 2.1 0.2 1.6 0 2.5-0.6 0.9-0.6 0.9-1.6 0-0.7-0.3-1.2-0.4-0.4-1-0.8-0.6-0.3-1.5-0.6-0.9-0.2-2.1-0.5-1.3-0.3-2.3-0.7-1-0.4-1.7-0.9-0.7-0.6-1-1.3-0.3-0.7-0.3-1.7 0-1.4 0.5-2.3 0.4-1 1.3-1.7 0.9-0.7 2.1-1.1 1.2-0.2 2.5-0.2 1.9 0 3.4 0.5 1.6 0.6 2.7 1.4z"/><path class="a" d="m383.3 162.9h2.6l2.2 5.9 2.3-5.9h2.6l-3.1 7.7 2.8 6.4 5.5-14.2h3.1l-7.4 17.4h-2.4l-3.3-7.7-3.4 7.7h-2.4l-7.4-17.4h3l5.7 14.2 2.6-6.4z"/><path class="a" d="m416.7 177.8v2.4h-12.3v-17.4h12.1v2.4h-9.3v4.9h8.1v2.4h-8.1v5.3z"/><path class="a" d="m433 177.8v2.4h-12.3v-17.4h12.1v2.4h-9.3v4.9h8.1v2.4h-8.1v5.3z"/><path class="a" d="m450.2 165.2h-6v15h-2.8v-15h-6v-2.4h14.8z"/><path class="a" d="m464.1 166.9q-0.3-0.3-0.7-0.6-0.5-0.2-1.2-0.5-0.6-0.3-1.4-0.5-0.8-0.2-1.7-0.2-1.6 0-2.5 0.7-0.8 0.6-0.9 1.7 0 0.7 0.3 1.1 0.3 0.4 0.9 0.7 0.5 0.2 1.3 0.5 0.9 0.2 2 0.5 1.3 0.4 2.4 0.7 1.1 0.4 1.9 1 0.8 0.6 1.2 1.3 0.4 0.8 0.4 2.1 0 1.3-0.5 2.3-0.5 0.9-1.4 1.5-0.9 0.6-2.1 0.9-1.2 0.3-2.6 0.3-2 0-3.9-0.7-2-0.6-3.5-1.7l1.3-2.3q0.3 0.2 1 0.6 0.6 0.4 1.4 0.8 0.8 0.3 1.8 0.6 1 0.2 2 0.2 1.7 0 2.6-0.6 0.9-0.6 0.9-1.6 0-0.7-0.4-1.2-0.3-0.4-0.9-0.8-0.7-0.3-1.6-0.6-0.9-0.2-2-0.5-1.4-0.3-2.4-0.7-1-0.4-1.6-0.9-0.7-0.6-1-1.3-0.4-0.7-0.4-1.7 0-1.4 0.5-2.3 0.5-1 1.4-1.7 0.9-0.7 2-1.1 1.2-0.2 2.6-0.2 1.9 0 3.4 0.5 1.5 0.6 2.7 1.4z"/><path class="a" d="m174 129.4v-14.5q0-14.7 0.1-22.2 0-7.4 0-7.8 0-0.5 0-11.5 0-4.8 1.1-4.8 0.4 0 1 0.5 0.5 0.4 1.4 1.4 0.9 1 1.2 1.2 3.7 4 32 33.5 5.2 5.5 13.9 14.8 8.8 9.2 10.3 10.6l-1.1-49.5q-0.1-5-0.9-6.8-0.8-1.9-3.1-2.5-2.2-0.5-4.3-0.5-1.4 0-1.4-0.7 0-0.7 2-0.7 2.7 0 6.5 0.1 3.9 0.2 4 0.2 0.2 0 3.2-0.2 2.9-0.1 5.3-0.1 1.9 0 1.9 0.7 0 0.5-1.2 0.7-0.8 0.1-2.6 0.4-2.1 0.5-2.8 2.1-0.7 1.7-0.7 6.7l-0.2 57q0 2.5-0.1 3.8 0 1.5-0.1 2.2-0.1 0.6-0.3 0.8-0.1 0.2-0.4 0.2-0.9 0-7.4-6.3-0.6-0.6-4.7-4.6-4.1-4.1-10.4-10.4-6.3-6.3-11.2-11.5-14.1-14.7-26.3-28l1.3 46.8q0.2 6 1 8.4 0.9 2.3 3 2.9 2.3 0.6 5 0.6 0.8 0 0.8 0.6 0 0.7-1.8 0.7-2.5 0-5 0-2.4-0.1-4-0.2-1.5 0-1.7 0l-3.4 0.1q-3.5 0.1-6.2 0.1-1.7 0-1.7-0.7 0-0.6 0.9-0.6 2.3 0 4.1-0.6 1.8-0.5 2.4-3 0.6-2.5 0.6-9.4z"/><path class="a" d="m300.4 145.2q-8 0-14.7-2.3-6.6-2.4-11-6.1-4.5-3.8-7.6-9-3.1-5-4.5-10.2-1.3-5.4-1.3-10.8 0-6.3 2.3-12.7 2.4-6.5 7-12.3 4.6-5.9 12.5-9.5 8-3.7 17.8-3.7 17.4 0 28.5 9.9 11.1 9.9 11.1 26.7 0 16.8-11.1 28.5-11.2 11.5-29 11.5zm2.7-3.7q3.1 0 6.4-0.8 3.2-0.7 7.2-2.9 4-2.2 7-5.7 3-3.5 5.1-9.8 2.1-6.2 2.1-14.3 0-16.8-9-26.4-9-9.7-21.7-9.7-13 0-21.2 8.3-8.2 8.4-8.2 23.9 0 16.8 9.2 27 9.2 10.4 23.1 10.4z"/><path class="a" d="m393.3 147.7q-7.9 0-14.6-2.3-6.6-2.3-11-6.1-4.5-3.8-7.6-8.9-3.1-5.1-4.5-10.4-1.4-5.3-1.4-10.7 0-6.3 2.4-12.7 2.4-6.5 7-12.3 4.6-5.8 12.5-9.5 8-3.7 17.8-3.7 17.4 0 28.5 9.9 11.1 9.9 11.1 26.8 0 16.7-11.2 28.3-11.1 11.6-29 11.6zm2.8-3.8q3.1 0 6.4-0.6 3.2-0.8 7.2-3 4-2.2 7-5.7 3-3.6 5.1-9.8 2.1-6.2 2.1-14.3 0-16.8-9-26.5-9-9.6-21.7-9.6-13.1 0-21.2 8.3-8.2 8.3-8.2 23.9 0 16.8 9.2 27.1 9.2 10.2 23.1 10.2z"/><path class="a" d="m456.4 115.5v-17.2q0-18-0.2-21.1-0.2-2.7-1.1-3.9-0.8-1.2-3.2-1.7-1.2-0.3-3.5-0.3-0.8 0-0.8-0.6 0-0.8 1.6-0.8 2.1 0 4.8 0.1 2.7 0 4.6 0.1 1.9 0.1 2 0.1 0.3 0 5.2-0.1 4.9-0.2 6.7-0.2 12.3 0 18.5 4.3 2.5 1.8 4.7 5.3 2.2 3.5 2.2 8 0 11.6-12.2 22.6 16 20 21 25 5.9 6.1 12.3 7.1 1.9 0.2 3.9 0.2 0.9 0 0.9 0.7 0 0.7-2.4 0.7h-7.1q-7.3 0-10.8-1.9-2-1.1-4.5-3.5-2.5-2.4-3.7-4-1.2-1.4-5.4-6.9-2.4-3-6.3-8.2-3.9-5.2-4.7-6.2-0.6-0.6-1.3-0.6l-12.4-0.2q-0.7 0-0.7 0.8v2.4q0 17.1 0.5 21.2 0.3 2.4 1 3.7 0.8 1.4 2.9 1.7 2.8 0.4 4.5 0.4 0.8 0 0.8 0.6 0 0.7-1.6 0.7-2.4 0-5.4-0.1-2.9 0-4.9-0.1-2-0.1-2.1-0.1h-0.7q-0.7 0.1-1.8 0.1-1.1 0.1-2.3 0.1-1.2 0-2.5 0-1.3 0.1-2.1 0.1-1.7 0-1.7-0.7 0-0.6 0.9-0.6 1.2 0 3-0.4 2.2-0.4 2.9-5.4 0.5-4.1 0.5-21.2zm8.1-40.7v32q0 0.8 0.7 1.2 2.7 1.5 10.6 1.5 4.8 0 7.5-1.8 6.2-4.1 6.2-15.1 0-9.2-4.7-14.3-4.7-5.3-12.8-5.3-4.7 0-6.7 0.6-0.8 0.3-0.8 1.2z"/></svg>