<svg version="1.2" xmlns="http://www.w3.org/2000/svg" viewBox="377 560 557 198" width="557" height="198">
	<title>Mediamodifier-Design (4)</title>
	<style>
		.s0 { fill: none } 
		.s1 { fill: #231f20 } 
	</style>
	<g id="Layer 1">
		<g id="f78edb09-f90e-4c46-8a02-f8b4091ed1cd">
		</g>
		<g id="c8309f08-be21-401a-8cdb-d260614c2eff">
		</g>
		<g>
			<path class="s0" d="m231.5 0h100v100h-100z"/>
		</g>
		<g>
		</g>
		<g>
		</g>
		<g>
		</g>
		<g>
		</g>
		<g>
		</g>
		<g>
		</g>
		<g>
		</g>
		<g>
		</g>
		<g>
		</g>
		<g>
		</g>
		<g>
		</g>
		<g>
		</g>
		<g>
		</g>
		<g>
		</g>
		<g>
			<path class="s1" d="m485 606.4q1.4-2.7 2.9-5.4c0.1-0.2 1.3-2.1 1.2-2.3-4-4-8.3-8.6-8.7-14.7 0 0.3-1.3 2.3-1.3 2.2-2.2 4.4-6 8.5-6.5 13.7-0.6 6.1 4.2 10.1 8.1 14.1-0.2-0.2 3.9-7 4.3-7.6z"/>
		</g>
		<g>
			<path class="s1" d="m713.6 567.4q0 0 0 0-0.1 0.1 0 0z"/>
		</g>
		<g>
			<path class="s1" d="m427.2 618q0 0.1 0 0-1 2.9-2 5.8-1.1 2.9-2.1 5.8c-0.1 0.2-0.9 2.3-0.8 2.4 9.7 7.2 18.3 16 25.1 25.9 5.6 8.2 11 17.6 13.1 27.3q0.5 2.6 0.7 5.3 0.3 1.9 0.4 3.8 0.5-1.3 1-2.7c5-47.2-35.2-73.5-35.4-73.6z"/>
		</g>
		<g>
			<path class="s1" d="m532.6 675.8c-1.4-6.8-5.3-12.7-10.3-17.4-6.6-6.4-15-10.5-22.5-15.7-7.2-5.1-14.9-11.9-16.4-21.1-0.5-2.7-0.3-5.5 0.7-8.1q-0.1 0.3-0.4 0.7l0.4-0.7c0 0-6.5 6.7-7.2 15.3q-0.1 1.2 0 2.4 0 0.1 0 0.1c0.5 8.8 8.5 16.7 15.3 21.6 8.8 6.4 18.9 11 26.3 19.1 4 4.4 8.9 10.9 6.8 17.2-1.5 4.4-6.6 5.3-10.7 5.5-0.4 0-3.1 0.3-3.3-0.2q-0.3-1-0.7-2c-2.8-7.4-7.4-14.2-13.6-19.2-3.6-2.9-7.8-5.3-12.4-6-2-0.3-4.9-0.7-6.6 0.6-1.3 1-2 2.9-2.7 4.2q-1.7 3.1-3.4 6.2c-0.4 0.7-0.9 1.4-1.1 2.2-0.5 1.9 0.9 4.3 1.8 5.9 1.1 2 2.4 3.9 3.9 5.6 3 3.5 6.7 6.3 10.7 8.5 5.4 2.9 11.7 4.8 18 5.2 2.3 6.8 3.1 14.1 2 21.1q-0.4 2.5-1.2 4.9 0.8-0.9 1.5-1.8 0.7-1 1.4-2c0.4-0.6 0.3-0.4-0.1 0.2q0.2-0.3 0.4-0.7c2-3.7 3.5-7.4 4.2-11.6 0.5-3.4 0.6-7 0.3-10.5 2.2-0.4 4.4-1.1 6.4-2.2 6.5-3.8 11.2-10.5 12.7-17.9q0.1-0.7 0.2-1.4c0.3-2.7 0.2-5.4-0.4-8zm-47.1 7.9q-2.2-2-4.1-4.5c2.7 0.9 5.2 2.2 7.5 3.8 3.2 2.3 6 5.1 8.4 8.2-4.3-1.8-8.3-4.3-11.8-7.5z"/>
		</g>
		<g>
			<path class="s1" d="m620.2 719.4q-0.1 1-0.5 1.9-0.4 0.9-1.2 1.5-0.7 0.6-1.7 0.9-1 0.3-2.2 0.3h-8.6v-18h9.3q0.9 0 1.7 0.4 0.8 0.4 1.3 1.1 0.5 0.6 0.8 1.5 0.3 0.8 0.3 1.6 0 1.3-0.7 2.5-0.6 1.1-1.9 1.7 1.6 0.4 2.4 1.7 1 1.1 1 2.9zm-11.3-10.9v5.3h5.2q0.5 0 1-0.2 0.4-0.2 0.7-0.6 0.4-0.3 0.6-0.8 0.2-0.5 0.2-1-0.1-1.2-0.7-1.9-0.7-0.8-1.7-0.8c0 0-5.3 0-5.3 0zm8.3 10.3q0-0.5-0.1-1-0.2-0.5-0.6-0.9-0.3-0.4-0.7-0.6-0.5-0.3-1-0.3h-5.9v5.5h5.7q0.6 0 1-0.2 0.5-0.2 0.9-0.6 0.3-0.3 0.5-0.8 0.2-0.5 0.2-1.1z"/>
		</g>
		<g>
			<path class="s1" d="m621.9 724l7.2-18h2.3l7.3 18h-3.1l-1.9-4.9h-6.9l-1.9 4.9zm8.4-14.8l-3 7.8h5.9z"/>
		</g>
		<g>
			<path class="s1" d="m641.8 724v-17.9h2.8v9.3l8.6-9.4h3l-7.1 8 7.5 10h-3l-6.1-8.4-2.9 2.9v5.5z"/>
		</g>
		<g>
			<path class="s1" d="m671.7 721.5v2.5h-12.3v-18h12.1v2.5h-9.3v5.1h8.1v2.4h-8.1v5.5c0 0 9.5 0 9.5 0z"/>
		</g>
		<g>
			<path class="s1" d="m675.7 724v-18h7.8q1.3 0 2.3 0.5 1 0.5 1.7 1.4 0.8 0.8 1.2 1.8 0.4 1.1 0.4 2.2 0 0.9-0.2 1.7-0.3 0.9-0.8 1.6-0.4 0.7-1.1 1.2-0.6 0.5-1.4 0.8l4.3 6.8h-3.2l-4-6.3h-4.1v6.3c0 0-2.9 0-2.9 0zm2.8-8.8h5q0.6 0 1.1-0.2 0.5-0.3 0.9-0.8 0.3-0.4 0.5-1 0.2-0.6 0.2-1.3 0-0.7-0.2-1.3-0.3-0.6-0.7-1.1-0.3-0.4-0.9-0.7-0.5-0.3-1-0.3h-4.8c0 0 0 6.7-0.1 6.7z"/>
		</g>
		<g>
			<path class="s1" d="m704.3 710.3q-0.3-0.3-0.8-0.6-0.5-0.3-1.1-0.6-0.6-0.3-1.4-0.5-0.8-0.2-1.7-0.2-1.7 0-2.5 0.7-0.9 0.7-0.9 1.8 0 0.7 0.3 1.1 0.3 0.4 0.8 0.7 0.6 0.3 1.4 0.6 0.9 0.2 2 0.5 1.3 0.4 2.4 0.7 1.1 0.4 1.8 1 0.8 0.6 1.2 1.4 0.5 0.8 0.5 2.1 0 1.4-0.5 2.4-0.6 0.9-1.5 1.6-0.9 0.6-2.1 0.9-1.2 0.3-2.5 0.3-2.1 0-4-0.7-1.9-0.6-3.4-1.8l1.3-2.4q0.3 0.3 0.9 0.7 0.6 0.4 1.4 0.8 0.9 0.3 1.9 0.6 0.9 0.2 2 0.2 1.6 0 2.5-0.6 0.9-0.6 0.9-1.7 0-0.7-0.3-1.2-0.3-0.4-1-0.8-0.6-0.3-1.5-0.6-0.9-0.2-2.1-0.5-1.3-0.4-2.3-0.8-1-0.4-1.7-0.9-0.6-0.6-1-1.3-0.3-0.8-0.3-1.8 0-1.4 0.5-2.4 0.5-1 1.3-1.7 0.9-0.7 2.1-1.1 1.2-0.3 2.6-0.3 1.8 0 3.4 0.6 1.5 0.6 2.6 1.4z"/>
		</g>
		<g>
			<path class="s1" d="m729.1 724l-1.6-1.8q-1.1 1-2.5 1.5-1.3 0.5-2.7 0.5-1.3 0-2.4-0.4-1.1-0.4-1.9-1.1-0.8-0.7-1.2-1.6-0.4-1-0.4-2 0-0.9 0.2-1.6 0.3-0.7 0.8-1.4 0.4-0.6 1-1.1 0.6-0.5 1.3-1-0.6-0.7-1-1.2-0.4-0.5-0.6-1-0.3-0.4-0.4-0.9-0.1-0.4-0.1-0.9 0-0.9 0.4-1.7 0.3-0.8 1-1.3 0.6-0.6 1.5-0.9 0.9-0.3 1.9-0.3 0.9 0 1.7 0.3 0.9 0.2 1.5 0.7 0.6 0.5 1 1.2 0.3 0.7 0.4 1.6 0 1.5-1 2.6-1 1.2-2.4 2.1l4 4.2q0.4-0.9 0.6-1.9 0.3-1 0.3-2.1h2.3q0 1.6-0.4 3.1-0.4 1.5-1.2 2.6l3.6 3.8h-3.7zm-6.6-2q1 0 1.9-0.3 0.8-0.4 1.6-1l-4.7-5q-1 0.8-1.7 1.6-0.6 0.8-0.6 1.8 0 0.7 0.3 1.2 0.3 0.5 0.8 0.9 0.4 0.4 1.1 0.6 0.6 0.2 1.3 0.2zm-2.4-12.1q0 0.2 0.1 0.5 0.1 0.2 0.3 0.5 0.1 0.3 0.5 0.7 0.3 0.4 0.8 0.9 1.2-0.7 1.9-1.4 0.7-0.6 0.7-1.4 0-0.8-0.6-1.3-0.6-0.5-1.4-0.5-1 0-1.6 0.6-0.7 0.6-0.7 1.4z"/>
		</g>
		<g>
			<path class="s1" d="m753.7 710.3q-0.2-0.3-0.7-0.6-0.5-0.3-1.1-0.6-0.7-0.3-1.5-0.5-0.7-0.2-1.6-0.2-1.7 0-2.6 0.7-0.8 0.7-0.8 1.8 0 0.7 0.3 1.1 0.2 0.4 0.8 0.7 0.5 0.3 1.4 0.6 0.8 0.2 1.9 0.5 1.3 0.4 2.4 0.7 1.1 0.4 1.9 1 0.8 0.6 1.2 1.4 0.5 0.8 0.4 2.1 0 1.4-0.5 2.4-0.5 0.9-1.4 1.6-0.9 0.6-2.1 0.9-1.2 0.3-2.5 0.3-2.1 0-4-0.7-1.9-0.6-3.5-1.8l1.3-2.4q0.4 0.3 1 0.7 0.6 0.4 1.4 0.8 0.8 0.3 1.8 0.6 1 0.2 2.1 0.2 1.6 0 2.5-0.6 0.9-0.6 0.9-1.7 0-0.7-0.3-1.2-0.4-0.4-1-0.8-0.6-0.3-1.5-0.6-0.9-0.2-2.1-0.5-1.3-0.4-2.3-0.8-1-0.4-1.7-0.9-0.7-0.6-1-1.3-0.3-0.8-0.3-1.8 0-1.4 0.5-2.4 0.4-1 1.3-1.7 0.9-0.7 2.1-1.1 1.2-0.3 2.5-0.3 1.9 0 3.4 0.6 1.6 0.6 2.7 1.4z"/>
		</g>
		<g>
			<path class="s1" d="m765.6 706.1h2.6l2.2 6.1 2.3-6.1h2.6l-3.1 8 2.8 6.6 5.5-14.7h3.1l-7.4 18h-2.4l-3.3-8-3.4 8h-2.4l-7.4-18h3l5.7 14.7 2.6-6.6z"/>
		</g>
		<g>
			<path class="s1" d="m799 721.5v2.5h-12.3v-18h12.1v2.5h-9.3v5.1h8.1v2.4h-8.1v5.5c0 0 9.5 0 9.5 0z"/>
		</g>
		<g>
			<path class="s1" d="m815.3 721.5v2.5h-12.3v-18h12.1v2.5h-9.3v5.1h8.1v2.4h-8.1v5.5c0 0 9.5 0 9.5 0z"/>
		</g>
		<g>
			<path class="s1" d="m832.5 708.5h-6v15.5h-2.8v-15.5h-6v-2.5h14.8c0 0 0 2.5 0 2.5z"/>
		</g>
		<g>
			<path class="s1" d="m846.4 710.3q-0.3-0.3-0.7-0.6-0.5-0.3-1.2-0.6-0.6-0.3-1.4-0.5-0.8-0.2-1.7-0.2-1.6 0-2.5 0.7-0.8 0.7-0.9 1.8 0 0.7 0.3 1.1 0.3 0.4 0.9 0.7 0.5 0.3 1.3 0.6 0.9 0.2 2 0.5 1.3 0.4 2.4 0.7 1.1 0.4 1.9 1 0.8 0.6 1.2 1.4 0.4 0.8 0.4 2.1 0 1.4-0.5 2.4-0.5 0.9-1.4 1.6-0.9 0.6-2.1 0.9-1.2 0.3-2.6 0.3-2 0-3.9-0.7-2-0.6-3.5-1.8l1.3-2.4q0.3 0.3 1 0.7 0.6 0.4 1.4 0.8 0.8 0.3 1.8 0.6 1 0.2 2 0.2 1.7 0 2.6-0.6 0.9-0.6 0.9-1.7 0-0.7-0.4-1.2-0.3-0.4-0.9-0.8-0.7-0.3-1.6-0.6-0.9-0.2-2-0.5-1.4-0.4-2.4-0.8-1-0.4-1.6-0.9-0.7-0.6-1-1.3-0.4-0.8-0.4-1.8 0-1.4 0.5-2.4 0.5-1 1.4-1.7 0.9-0.7 2-1.1 1.2-0.3 2.6-0.3 1.9 0 3.4 0.6 1.5 0.6 2.7 1.4z"/>
		</g>
		<g>
			<path class="s1" d="m556.3 671.6v-14.9q0-15.2 0.1-22.9 0-7.7 0-8.1 0-0.5 0-11.8 0-5 1.1-5 0.4 0 1 0.5 0.5 0.5 1.4 1.5 0.9 1 1.2 1.2 3.7 4.2 32 34.6 5.2 5.6 13.9 15.2 8.8 9.5 10.3 11l-1.1-51.1q-0.1-5.1-0.9-7-0.8-2-3.1-2.6-2.2-0.5-4.3-0.5-1.4 0-1.4-0.7 0-0.7 2-0.7 2.7 0 6.5 0.1 3.9 0.2 4 0.2 0.2 0 3.2-0.2 2.9-0.1 5.3-0.1 1.9 0 1.9 0.7 0 0.5-1.2 0.7-0.8 0.1-2.6 0.4-2.1 0.5-2.8 2.2-0.7 1.7-0.7 6.9l-0.2 58.8q0 2.5-0.1 3.9 0 1.5-0.1 2.2-0.1 0.7-0.3 0.9-0.1 0.2-0.4 0.2-0.9 0-7.4-6.5-0.6-0.6-4.7-4.8-4.1-4.2-10.4-10.7-6.3-6.5-11.2-11.8-14.1-15.2-26.3-28.9l1.3 48.2q0.2 6.2 1 8.7 0.9 2.4 3 3 2.3 0.6 5 0.6 0.8 0 0.8 0.6 0 0.8-1.8 0.8-2.5 0-5 0-2.4-0.1-4-0.2-1.5-0.1-1.7-0.1l-3.4 0.2q-3.5 0.1-6.2 0.1-1.7 0-1.7-0.8 0-0.6 0.9-0.6 2.3 0 4.1-0.6 1.8-0.5 2.4-3.1 0.6-2.6 0.6-9.7z"/>
		</g>
		<g>
			<path class="s1" d="m682.7 687.9q-8 0-14.7-2.4-6.6-2.4-11-6.3-4.5-3.9-7.6-9.2-3.1-5.2-4.5-10.6-1.3-5.5-1.3-11.1 0-6.5 2.3-13.1 2.4-6.7 7-12.7 4.6-6 12.5-9.8 8-3.8 17.8-3.8 17.4 0 28.5 10.2 11.1 10.2 11.1 27.6 0 17.3-11.1 29.3-11.2 11.9-29 11.9zm2.7-3.8q3.1 0 6.4-0.8 3.2-0.8 7.2-3 4-2.3 7-5.9 3-3.6 5.1-10.1 2.1-6.4 2.1-14.8 0-17.3-9-27.2-9-10-21.7-10-13 0-21.2 8.6-8.2 8.6-8.2 24.6 0 17.3 9.2 27.9 9.2 10.7 23.1 10.7z"/>
		</g>
		<g>
			<path class="s1" d="m775.6 690.5q-7.9 0-14.6-2.4-6.6-2.4-11-6.3-4.5-3.9-7.6-9.2-3.1-5.2-4.5-10.7-1.4-5.4-1.4-11 0-6.5 2.4-13.1 2.4-6.7 7-12.7 4.6-6 12.5-9.8 8-3.8 17.8-3.8 17.4 0 28.5 10.2 11.1 10.2 11.1 27.6 0 17.3-11.2 29.2-11.1 12-29 12zm2.8-3.9q3.1 0 6.4-0.7 3.2-0.8 7.2-3 4-2.3 7-5.9 3-3.7 5.1-10.1 2.1-6.4 2.1-14.8 0-17.3-9-27.3-9-9.9-21.7-9.9-13.1 0-21.2 8.6-8.2 8.5-8.2 24.6 0 17.3 9.2 27.9 9.2 10.6 23.1 10.6z"/>
		</g>
		<g>
			<path class="s1" d="m838.7 657.3v-17.8q0-18.5-0.2-21.7-0.2-2.8-1.1-4-0.8-1.3-3.2-1.8-1.2-0.3-3.5-0.3-0.8 0-0.8-0.6 0-0.8 1.6-0.8 2.1 0 4.8 0.1 2.7 0 4.6 0.1 1.9 0.1 2 0.1 0.3 0 5.2-0.1 4.9-0.2 6.7-0.2 12.3 0 18.5 4.4 2.5 1.9 4.7 5.5 2.2 3.6 2.2 8.2 0 12-12.2 23.3 16 20.6 21 25.8 5.9 6.3 12.3 7.3 1.9 0.2 3.9 0.2 0.9 0 0.9 0.7 0 0.8-2.4 0.8h-7.1q-7.3 0-10.8-2-2-1.1-4.5-3.6-2.5-2.5-3.7-4.1-1.2-1.5-5.4-7.1-2.4-3.1-6.3-8.5-3.9-5.4-4.7-6.4-0.6-0.6-1.3-0.6l-12.4-0.2q-0.7 0-0.7 0.8v2.5q0 17.6 0.5 21.8 0.3 2.5 1 3.9 0.8 1.4 2.9 1.7 2.8 0.4 4.5 0.4 0.8 0 0.8 0.6 0 0.8-1.6 0.8-2.4 0-5.4-0.1-2.9 0-4.9-0.1-2-0.1-2.1-0.1h-0.7q-0.7 0.1-1.8 0.1-1.1 0.1-2.3 0.1-1.2 0-2.5 0-1.3 0.1-2.1 0.1-1.7 0-1.7-0.8 0-0.6 0.9-0.6 1.2 0 3-0.4 2.2-0.4 2.9-5.6 0.5-4.2 0.5-21.8zm8.1-42v33q0 0.8 0.7 1.2 2.7 1.6 10.6 1.6 4.8 0 7.5-1.9 6.2-4.2 6.2-15.5 0-9.5-4.7-14.8-4.7-5.4-12.8-5.4-4.7 0-6.7 0.6-0.8 0.3-0.8 1.2z"/>
		</g>
	</g>
</svg>