<svg xmlns="http://www.w3.org/2000/svg" xmlns:xlink="http://www.w3.org/1999/xlink" xmlns:inkscape="http://www.inkscape.org/namespaces/inkscape" version="1.1" width="500" height="500" viewBox="0 0 500 500">
<defs>
<clipPath id="clip_0">
<path transform="matrix(1,0,0,-1,0,500)" d="M0 500H500V0H0Z"/>
</clipPath>
</defs>
<g clip-path="url(#clip_0)">
<path transform="matrix(1,0,0,-1,188.9382,158.2052)" d="M0 0C2.397 4.33 4.795 8.66 7.144 13.016 7.469 13.618 10.261 18.198 9.996 18.467 .285 28.327-10.093 39.404-10.958 53.957-10.918 53.274-14.101 48.588-14.07 48.649-19.269 38.143-28.576 28.125-29.818 15.728-31.291 1.028-19.641-8.715-10.364-18.263-10.818-17.795-.829-1.498 0 0"/>
<path transform="matrix(1,0,0,-1,219.3999,338.2621)" d="M0 0C-.001 .001-.006 .004-.006 .004-.068-.166-.06-.151 0 0"/>
<path transform="matrix(1,0,0,-1,180.2962,249.3742)" d="M0 0C-.04-.102-.046-.112-.004 .003-1.694-4.624-3.346-9.267-4.984-13.912-6.623-18.558-8.262-23.205-9.849-27.868-10.071-28.519-12.06-33.458-11.749-33.69 11.633-51.1 32.177-72.213 48.629-96.299 62.072-115.98 75.064-138.535 80.145-162.043 81.05-166.228 81.657-170.496 81.84-174.78 82.412-177.862 82.775-180.969 83.004-184.088 83.794-181.871 84.563-179.646 85.326-177.421 97.443-63.699 .339-.221 0 0"/>
<path transform="matrix(1,0,0,-1,230.9593,236.5987)" d="M0 0C-3.631 3.333-6.97 6.987-9.942 10.921-3.482 8.877 2.531 5.566 8.063 1.672 15.789-3.763 22.587-10.446 28.417-17.879 18.022-13.573 8.292-7.605 0 0M113.556 19.166C110.132 35.479 100.719 49.756 88.754 61.117 72.645 76.413 52.515 86.32 34.413 98.937 16.94 111.123-1.415 127.617-5.194 149.722-6.322 156.314-5.853 163.02-3.442 169.279-3.648 168.743-3.994 168.138-4.368 167.536L-3.442 169.279C-3.442 169.279-19.058 153.265-20.773 132.418-20.966 130.44-20.993 128.476-20.872 126.531-20.871 126.518-20.871 126.505-20.87 126.492H-20.869C-19.513 105.168-.218 86.093 16.081 74.265 37.264 58.895 61.724 47.808 79.557 28.159 89.003 17.751 100.811 1.939 95.797-13.138 92.217-23.901 79.955-25.887 70.084-26.408 69.063-26.462 62.673-27.229 62.216-25.88 61.678-24.287 61.105-22.707 60.504-21.143 53.666-3.362 42.602 13.177 27.712 25.204 19.036 32.213 8.9 37.98-2.245 39.687-7.044 40.42-14.008 41.216-18.234 38.129-21.35 35.85-22.942 31.154-24.717 27.987-27.466 23.073-30.198 18.148-32.878 13.195-33.794 11.499-35.06 9.655-35.564 7.737-36.778 3.115-33.301-2.48-31.211-6.374-28.606-11.225-25.45-15.772-21.865-19.952-14.678-28.336-5.778-35.186 3.929-40.42 17.049-47.498 32.162-52.045 47.304-53.03 52.83-69.34 54.834-86.887 52.126-103.804 51.49-107.79 50.568-111.748 49.371-115.613 50.608-114.199 51.799-112.738 52.927-111.226 54.078-109.68 55.149-108.082 56.18-106.45 57.142-104.921 56.959-105.414 56.134-107.034 56.438-106.456 56.747-105.878 57.051-105.305 61.798-96.48 65.337-87.363 67.01-77.444 68.418-69.054 68.636-60.504 67.846-52.034 73.207-51.078 78.522-49.419 83.22-46.675 98.86-37.54 110.318-21.428 113.805-3.654 114.037-2.47 114.233-1.28 114.392-.084 115.247 6.359 114.882 12.848 113.556 19.166"/>
<path transform="matrix(1,0,0,-1,455.325,250.3908)" stroke-width="9" stroke-linecap="butt" stroke-miterlimit="10" stroke-linejoin="miter" fill="none" stroke="#000000" d="M0 0C0-112.071-90.851-202.922-202.922-202.922-314.993-202.922-405.844-112.071-405.844 0-405.844 112.071-314.993 202.922-202.922 202.922-90.851 202.922 0 112.071 0 0Z"/>
</g>
</svg>
