<svg width="37" height="35" viewBox="0 0 37 35" fill="none" xmlns="http://www.w3.org/2000/svg">
<path d="M35.9999 26.6001C35.9332 26.6001 35.8999 26.5667 35.8999 26.5C35.4999 26.3 34.9998 26.2001 34.7998 26.1001C32.8998 25.5001 31.2999 24.3002 30.0999 22.7002C29.3999 21.8002 28.7999 20.8999 28.4999 19.8999C28.2999 19.4999 28.2999 19.0002 28.4999 18.7002C28.8999 18.2002 29.4999 17.9001 30.0999 17.6001C30.8999 17.4001 31.6998 17.1 32.2998 16.5C32.3998 16.4 32.5999 16.3001 32.6999 16.1001C32.6999 16.0334 32.6999 16 32.6999 16C32.7999 15.8 32.7999 15.5999 32.6999 15.3999C32.4999 14.9999 32.1999 14.8002 31.8999 14.7002C31.4999 14.4002 30.9999 14.4 30.5999 14.5C30.0999 14.7 29.7999 14.7999 29.3999 14.8999C28.8999 14.9999 28.3999 14.9999 28.0999 14.8999C28.0999 14.8332 28.0999 14.7334 28.0999 14.6001C27.9999 13.8001 28.0999 12.9001 28.0999 12.1001C28.1999 10.8001 28.1999 9.5001 27.9999 8.1001C27.5999 5.9001 26.0998 3.9001 24.2998 2.6001C22.9998 1.7001 21.3998 1.1 19.7998 1C19.1998 0.933333 18.6332 0.899902 18.0999 0.899902C15.9999 0.899902 13.6999 1.4999 11.8999 2.8999C10.5999 3.8999 9.59994 5.2998 8.89994 6.7998V6.8999C8.29994 8.3999 8.29994 10.1002 8.39994 11.7002C8.49994 12.8002 8.59991 13.7998 8.49991 14.7998C8.49991 14.8665 8.49991 14.8999 8.49991 14.8999C7.99991 14.9999 7.49994 14.9999 6.89994 14.8999C6.59994 14.7999 6.19986 14.6 5.69986 14.5C5.29986 14.4 4.89991 14.4998 4.49991 14.7998C4.19991 14.9998 3.89994 15.2998 3.89994 15.7998C3.89994 15.7998 3.89994 15.8332 3.89994 15.8999C3.89994 16.0999 4.09984 16.4 4.29984 16.5C4.43317 16.6333 4.56653 16.7331 4.69986 16.7998C5.49986 17.3998 6.39986 17.5999 7.19986 17.8999C7.69986 18.0999 8.09986 18.4999 8.19986 18.8999C8.39986 19.4999 8.09984 20.1998 7.79984 20.7998C6.99984 22.4998 5.69989 24.0001 4.09989 25.1001C3.29989 25.6001 2.29994 25.9998 1.39994 26.2998C1.39994 26.2998 1.3665 26.2998 1.29984 26.2998C1.09984 26.3998 0.699935 26.3999 0.399935 26.8999C0.333269 26.8999 0.299838 26.9333 0.299838 27C0.199838 27.3 0.299911 27.6002 0.499911 27.7002C0.633244 27.9002 0.766602 28.0334 0.899935 28.1001C1.69994 28.5001 2.59994 28.7 3.39994 29C3.99994 29.1 4.59991 29.1999 4.99991 29.3999C4.99991 29.3999 5.06653 29.5331 5.19986 29.7998C5.29986 30.1998 5.39989 30.6998 5.59989 31.2998C5.59989 31.4998 5.69994 31.6001 5.89994 31.6001C6.29994 31.7001 6.49991 31.6001 6.49991 31.6001H6.59989C7.89989 31.3001 9.29991 31.0999 10.4999 31.3999C11.7999 31.7999 12.9998 32.6999 14.2998 33.3999C15.0998 33.9999 16.0999 34.5 17.1999 34.5H17.2998C18.0998 34.6 18.9998 34.5 19.7998 34.5C20.4998 34.4 21.1998 34.1998 21.7998 33.7998C23.1998 32.9998 24.3999 32.1 25.6999 31.5C26.0999 31.4 26.5999 31.3998 27.1999 31.2998C28.3332 31.2998 29.4332 31.3667 30.4999 31.5C30.5666 31.5 30.5999 31.5 30.5999 31.5C30.7999 31.5 30.8999 31.3998 30.9999 31.2998C31.0999 31.1998 31.0999 31.1001 31.0999 31.1001C31.0999 31.0001 31.1999 30.9 31.0999 31C31.0999 31 31.1332 30.9666 31.1999 30.8999C31.2999 30.2999 31.4998 29.6998 31.7998 29.2998C31.8998 29.1998 32.1999 29.1001 32.3999 29.1001H32.4999C33.3999 29.0001 34.2999 28.5999 35.0999 28.3999C35.3999 28.1999 35.8999 28.1001 36.1999 27.6001C36.3999 27.3001 36.2999 26.8001 35.9999 26.6001Z" fill="#AE8C5B"/>
</svg>
